<svg xmlns="http://www.w3.org/2000/svg" id="Layer_1" data-name="Layer 1" viewBox="130.44 210.57 334.38 174.17">
  <defs>
    <style>
      .cls-1 {
        fill: #231f20;
        stroke-width: 0px;
      }
    </style>
  </defs>
  <polygon class="cls-1" points="275.32 339.24 271.07 342.33 272.7 347.35 268.45 344.25 264.17 347.35 265.81 342.33 261.57 339.24 266.81 339.24 268.45 334.25 270.07 339.24 275.32 339.24"/>
  <polygon class="cls-1" points="295.55 339.24 291.31 342.33 292.94 347.35 288.67 344.25 284.41 347.35 286.04 342.33 281.81 339.24 287.05 339.24 288.67 334.25 290.3 339.24 295.55 339.24"/>
  <polygon class="cls-1" points="315.78 339.24 311.53 342.33 313.17 347.35 308.91 344.25 304.64 347.35 306.27 342.33 302.03 339.24 307.28 339.24 308.91 334.25 310.54 339.24 315.78 339.24"/>
  <polygon class="cls-1" points="336.02 339.24 331.77 342.33 333.39 347.35 329.14 344.25 324.88 347.35 326.51 342.33 322.26 339.24 327.51 339.24 329.14 334.25 330.77 339.24 336.02 339.24"/>
  <path class="cls-1" d="M152.48,280.14v-.45c1.49.08,2.78.14,3.86.17,1.08.04,2.1.05,3.05.05s1.84-.01,2.81-.05c.98-.03,2.16-.09,3.56-.17v.45c-.97.2-1.65.51-2.04.88-.39.38-.58.93-.58,1.64,0,.34.09.76.28,1.26.19.51.54,1.25,1.1,2.24l12.41,23.38,7.98-16.9c.96-2.05,1.71-3.85,2.24-5.41.52-1.56.78-2.74.78-3.54,0-1.1-.31-1.95-.9-2.56-.6-.61-1.46-.94-2.58-.99v-.39c1.12.06,2.17.1,3.14.12.97.04,1.87.04,2.68.04.86,0,1.76,0,2.71-.04.93-.02,1.91-.07,2.91-.12v.39c-1.24.36-2.69,1.69-4.3,3.99-1.63,2.3-3.55,5.74-5.77,10.33l-11.52,23.66h-.27l-14.81-29.18v-.04c-2.77-5.42-5.02-8.35-6.74-8.78"/>
  <path class="cls-1" d="M195,317.2v-.45c1.49-.46,2.52-1.44,3.07-2.9.55-1.48.82-4.65.82-9.54v-7.89c0-3.01-.23-4.88-.68-5.61-.46-.74-1.33-1.15-2.62-1.22l-.03-.45c1.38-.16,2.81-.42,4.3-.77,1.48-.34,3.05-.8,4.71-1.36,0,.21-.04,1.58-.11,4.13-.08,2.56-.12,4.85-.12,6.87v6.59c0,4.79.27,7.9.82,9.31.54,1.41,1.56,2.35,3.08,2.83v.45c-.9-.06-1.82-.1-2.78-.12-.97-.03-2.26-.04-3.94-.04-1.39,0-2.58.01-3.56.04-.98.02-1.97.07-2.96.12M198.08,279.97c0-.95.32-1.74.97-2.37.64-.64,1.45-.96,2.42-.96s1.75.33,2.4.98c.66.65.98,1.43.98,2.35s-.32,1.72-.96,2.34c-.65.62-1.46.93-2.43.93s-1.82-.3-2.45-.91c-.62-.6-.94-1.39-.94-2.37"/>
  <path class="cls-1" d="M209.64,317.2v-.45c1.47-.46,2.49-1.39,3.04-2.79.56-1.38.84-4.17.84-8.35v-21.77c0-2.49-.23-4.1-.7-4.82-.47-.72-1.34-1.12-2.64-1.19v-.45c1.35-.17,2.77-.42,4.25-.77,1.5-.35,3.12-.79,4.87-1.36-.13,1.9-.22,3.75-.27,5.54-.06,1.79-.09,3.61-.09,5.45v18.35c0,4.79.27,7.9.83,9.31.55,1.41,1.58,2.35,3.1,2.83l-.03.45c-.88-.06-1.8-.1-2.77-.12-.97-.03-2.27-.04-3.92-.04-1.41,0-2.61.01-3.59.04-.98.02-1.96.07-2.92.12"/>
  <path class="cls-1" d="M257.32,317.15c-1.34-.04-2.38-.06-3.14-.08-.77-.02-1.44-.03-2.06-.03h-1.96c-.43-.79-.81-1.63-1.16-2.53-.35-.9-.64-1.9-.88-2.98-1.14,2-2.67,3.54-4.61,4.63-1.93,1.09-4.11,1.64-6.53,1.64-3.43,0-6.23-.88-8.38-2.63-2.16-1.76-3.23-4.01-3.23-6.77,0-3.19,1.89-5.61,5.66-7.26,3.78-1.65,9.33-2.48,16.66-2.48l.37-.03c-.04-3.86-.76-6.68-2.2-8.48-1.42-1.79-3.68-2.68-6.75-2.68-2.7,0-4.98.7-6.84,2.12-1.86,1.42-2.97,3.29-3.35,5.62h-.31l-1.81-5.84c1.92-.99,3.98-1.73,6.18-2.24,2.2-.51,4.54-.75,6.99-.75,2.07,0,3.93.22,5.57.65,1.64.44,3.09,1.11,4.34,2.01,1.34.95,2.3,2.17,2.86,3.66.57,1.5.86,3.65.86,6.47v7.55c0,3.26.29,5.68.88,7.25.58,1.58,1.54,2.51,2.83,2.79v.39ZM248.07,299.86c-.27-.02-.58-.04-.9-.04-.31-.01-.76-.01-1.34-.01-4.51,0-7.97.77-10.38,2.32-2.4,1.54-3.61,3.76-3.61,6.66,0,2.25.62,4.03,1.87,5.33,1.23,1.3,2.92,1.94,5.07,1.94,3.24,0,5.6-1.11,7.08-3.35,1.47-2.24,2.21-5.9,2.21-10.97v-1.88Z"/>
  <path class="cls-1" d="M258.78,317.2v-.45c1.34-.37,2.26-1.24,2.76-2.62.49-1.38.75-4.79.75-10.21v-8.36c0-2.59-.22-4.19-.65-4.8-.43-.6-1.23-.95-2.4-1.05v-.45c1.68-.18,4.25-.85,7.72-1.99l.25-.09v8.43c.76-2.95,2.11-5.22,4.03-6.8,1.92-1.58,4.29-2.37,7.13-2.37,3.07,0,5.51.69,7.35,2.05,1.84,1.37,3.05,3.42,3.65,6.14.89-2.61,2.32-4.63,4.28-6.05,1.96-1.43,4.3-2.14,7.02-2.14,3.73,0,6.47,1.13,8.23,3.38,1.75,2.26,2.64,5.81,2.64,10.66v5.45c0,4.37.25,7.16.73,8.39.49,1.23,1.4,2.05,2.71,2.43l-.02.45c-.81-.06-1.66-.1-2.55-.12-.9-.03-2.12-.04-3.67-.04-1.34,0-2.46.01-3.35.04-.89.02-1.78.07-2.65.12v-.45c1.26-.4,2.14-1.23,2.62-2.47.48-1.24.73-3.85.73-7.85v-5.48c0-4.27-.61-7.48-1.84-9.62-1.22-2.14-3.05-3.21-5.49-3.21-2.65,0-4.78,1.11-6.39,3.34-1.61,2.23-2.42,5.23-2.42,9.02v5.9c0,4.06.26,6.71.77,7.92.51,1.23,1.46,2.04,2.84,2.45l-.02.45c-1.14-.06-2.21-.1-3.22-.12-1.01-.03-1.95-.04-2.83-.04-1.55,0-2.79.01-3.74.04-.97.02-1.88.07-2.77.12l-.03-.45c1.38-.4,2.33-1.24,2.84-2.5.51-1.26.77-4.07.77-8.43v-4.87c0-4.24-.64-7.43-1.95-9.59-1.29-2.17-3.2-3.25-5.72-3.25-2.76,0-4.97,1.16-6.63,3.48-1.67,2.33-2.49,5.46-2.49,9.41v4.76c0,4.53.24,7.39.73,8.59.49,1.19,1.4,2,2.77,2.4v.45c-1.04-.06-2.08-.1-3.1-.12-1.03-.03-2.06-.04-3.08-.04-.95,0-1.95.01-3,.04-1.04.02-2.14.07-3.3.12"/>
  <path class="cls-1" d="M317.78,301.79c0-4.49,1.55-8.18,4.65-11.05,3.11-2.87,7.13-4.3,12.08-4.3s8.92,1.45,11.97,4.34c3.06,2.88,4.59,6.65,4.59,11.3s-1.54,8.44-4.61,11.33c-3.08,2.89-7.15,4.34-12.17,4.34s-8.89-1.47-11.93-4.42c-3.06-2.95-4.57-6.79-4.57-11.52M324.3,301.96c0,4.72.88,8.34,2.65,10.88,1.77,2.53,4.29,3.8,7.56,3.8s5.68-1.26,7.45-3.79c1.75-2.52,2.62-6.14,2.62-10.84s-.89-8.25-2.65-10.77c-1.78-2.52-4.3-3.77-7.58-3.77s-5.6,1.28-7.38,3.83c-1.78,2.56-2.66,6.11-2.66,10.66"/>
  <path class="cls-1" d="M389.31,316.75v.28h-7.16c-.45-.79-.84-1.63-1.17-2.53-.33-.9-.63-1.9-.87-2.98-1.1,2.09-2.54,3.67-4.34,4.72-1.78,1.07-3.87,1.6-6.25,1.6s-4.6-.39-6.46-1.17c-1.87-.79-3.29-1.88-4.25-3.3-.7-1.01-1.19-2.26-1.47-3.76-.29-1.5-.43-3.93-.43-7.29v-7.32c0-2.21-.23-3.64-.69-4.27-.45-.64-1.33-1.02-2.59-1.13v-.45c1.14-.13,2.38-.35,3.74-.67,1.35-.32,3.07-.81,5.15-1.45-.07,1.61-.12,3.24-.17,4.86-.03,1.62-.06,3.24-.06,4.86v3.72c0,6.25.64,10.45,1.94,12.58,1.28,2.15,3.54,3.22,6.77,3.22,2.93,0,5.19-1.25,6.78-3.76,1.59-2.51,2.4-6.1,2.4-10.78v-5.31c0-3.01-.21-4.88-.65-5.61-.42-.74-1.27-1.15-2.51-1.22v-.45c1.18-.15,2.44-.38,3.8-.72,1.36-.32,3.03-.79,5-1.4-.07,1.6-.12,3.24-.17,4.94-.03,1.7-.06,3.5-.06,5.42v6.75c0,4.85.27,8.08.81,9.71.55,1.62,1.51,2.59,2.92,2.9"/>
  <path class="cls-1" d="M390.98,317.2v-.45c1.44-.44,2.42-1.3,2.94-2.57.53-1.27.79-4.24.79-8.9v-9.95c0-2.43-.22-4-.67-4.69-.46-.7-1.3-1.09-2.55-1.16v-.44c1.22-.17,2.52-.42,3.86-.76,1.34-.34,2.79-.76,4.33-1.26v9.28c1.19-3,2.69-5.3,4.49-6.89,1.8-1.59,3.79-2.39,5.99-2.39.32,0,.57.01.74.01.18.01.33.03.44.04l-2.04,6.46h-.45c-.36-.43-.76-.75-1.22-.98-.46-.23-.98-.34-1.55-.34-1.9,0-3.36.85-4.35,2.56-1.01,1.71-1.5,4.2-1.5,7.48v3.35c0,4.55.25,7.44.77,8.66.52,1.22,1.49,2.05,2.93,2.47l-.03.45c-1.07-.06-2.12-.1-3.16-.12-1.05-.03-2.09-.04-3.13-.04-1.59,0-2.87.01-3.84.04-.98.02-1.91.07-2.8.12"/>
  <path class="cls-1" d="M445.68,317.15c-1.34-.04-2.4-.06-3.15-.08-.75-.02-1.45-.03-2.06-.03h-1.96c-.43-.79-.81-1.63-1.16-2.53-.34-.9-.63-1.9-.88-2.98-1.14,2-2.66,3.54-4.6,4.63-1.93,1.09-4.11,1.64-6.53,1.64-3.45,0-6.23-.88-8.38-2.63-2.16-1.76-3.23-4.01-3.23-6.77,0-3.19,1.89-5.61,5.66-7.26,3.78-1.65,9.33-2.48,16.66-2.48l.36-.03c-.03-3.86-.77-6.68-2.19-8.48-1.42-1.79-3.68-2.68-6.76-2.68-2.7,0-4.98.7-6.83,2.12-1.86,1.42-2.97,3.29-3.34,5.62h-.31l-1.81-5.84c1.92-.99,3.98-1.73,6.18-2.24,2.2-.51,4.53-.75,6.99-.75,2.07,0,3.93.22,5.57.65,1.65.44,3.09,1.11,4.34,2.01,1.34.95,2.3,2.17,2.87,3.66.57,1.5.84,3.65.84,6.47v7.55c0,3.26.3,5.68.89,7.25.59,1.58,1.53,2.51,2.84,2.79v.39ZM436.41,299.86c-.28-.02-.58-.04-.9-.04-.32-.01-.76-.01-1.34-.01-4.51,0-7.98.77-10.38,2.32-2.41,1.54-3.61,3.76-3.61,6.66,0,2.25.62,4.03,1.86,5.33,1.24,1.3,2.94,1.94,5.08,1.94,3.25,0,5.6-1.11,7.07-3.35,1.48-2.24,2.21-5.9,2.21-10.97v-1.88Z"/>
  <path class="cls-1" d="M171.23,384.02c0,.08-.01.15-.06.21-.04.06-.11.11-.22.15-.1.04-.23.07-.41.09-.17.02-.37.04-.62.04-.26,0-.48-.02-.64-.04-.17-.02-.3-.06-.4-.09-.1-.04-.17-.08-.22-.15-.04-.06-.06-.13-.06-.21v-8.83h-9.05v8.83c0,.08-.02.15-.06.21-.04.06-.11.11-.21.15-.11.04-.24.07-.41.09-.16.02-.38.04-.63.04s-.45-.02-.63-.04c-.18-.02-.31-.06-.41-.09-.11-.04-.18-.08-.22-.15-.05-.06-.05-.13-.05-.21v-19.1c0-.08,0-.15.05-.2.04-.07.11-.11.22-.15.1-.04.24-.07.41-.09.18-.02.38-.04.63-.04s.47.02.63.04c.17.03.31.06.41.09.1.04.17.08.21.15.04.06.06.13.06.2v7.96h9.05v-7.96c0-.08.02-.15.06-.2.04-.07.11-.11.22-.15.1-.04.23-.07.4-.09.16-.02.38-.04.64-.04.25,0,.45.02.62.04.18.03.31.06.41.09.11.04.17.08.22.15.05.06.06.13.06.2v19.1Z"/>
  <path class="cls-1" d="M192.86,374.24c0,1.61-.18,3.06-.56,4.35-.38,1.29-.96,2.39-1.7,3.29-.76.91-1.69,1.6-2.84,2.09-1.14.49-2.46.73-3.99.73s-2.8-.23-3.88-.67c-1.08-.45-1.99-1.09-2.7-1.94-.71-.85-1.24-1.9-1.6-3.17-.34-1.26-.51-2.7-.51-4.34s.19-3,.57-4.28c.39-1.28.95-2.37,1.71-3.26.75-.9,1.7-1.59,2.84-2.08,1.14-.49,2.46-.73,3.98-.73s2.73.22,3.82.66c1.09.44,2,1.09,2.72,1.94.71.85,1.25,1.89,1.6,3.13.36,1.25.53,2.67.53,4.29M190.06,374.42c0-1.13-.1-2.17-.3-3.14-.21-.97-.53-1.81-1.01-2.51-.45-.72-1.08-1.28-1.86-1.67-.77-.4-1.74-.6-2.88-.6s-2.12.21-2.9.65c-.77.43-1.4,1-1.89,1.72-.49.72-.83,1.55-1.04,2.51-.21.96-.31,1.97-.31,3.03,0,1.17.09,2.24.29,3.22.2.98.52,1.82.99,2.54.46.72,1.08,1.26,1.85,1.66.77.4,1.73.59,2.9.59s2.13-.21,2.92-.64c.78-.43,1.42-1.01,1.9-1.74.48-.73.82-1.58,1.02-2.54.21-.97.31-1.98.31-3.06"/>
  <path class="cls-1" d="M208.35,365.67c0,.2-.01.37-.03.5-.02.15-.06.26-.09.35-.05.08-.11.15-.18.19-.06.04-.14.07-.22.07h-5.59v17.24c0,.08-.02.15-.05.21-.05.06-.12.11-.22.15-.11.04-.24.07-.41.09-.17.02-.38.04-.63.04s-.46-.02-.63-.04c-.18-.02-.31-.06-.41-.09-.1-.04-.18-.08-.22-.15-.04-.06-.05-.13-.05-.21v-17.24h-5.6c-.08,0-.15-.03-.22-.07-.06-.04-.12-.11-.16-.19-.04-.09-.08-.2-.1-.35-.03-.13-.04-.3-.04-.5s.01-.37.04-.52c.02-.15.06-.27.1-.36.04-.09.1-.15.16-.2.07-.04.14-.06.22-.06h13.83c.08,0,.16.02.22.06.07.04.13.11.18.2.04.09.07.21.09.36.02.15.03.32.03.52"/>
  <path class="cls-1" d="M221.97,383.32c0,.19-.01.35-.03.49-.02.14-.07.25-.11.35-.06.09-.11.15-.18.2-.07.04-.14.06-.22.06h-9.55c-.24,0-.46-.08-.66-.24-.21-.15-.32-.44-.32-.84v-17.73c0-.4.1-.68.32-.83.2-.16.43-.24.66-.24h9.43c.09,0,.16.02.22.06.07.04.13.11.16.2.05.09.07.21.1.35.03.14.04.31.04.51,0,.19-.01.35-.04.49-.03.14-.06.25-.1.34-.04.09-.09.15-.16.19-.06.04-.13.06-.22.06h-7.77v6.24h6.67c.08,0,.16.03.22.07.06.05.12.11.17.19.04.08.07.2.1.34.01.15.04.31.04.51,0,.18-.02.34-.04.47-.02.13-.06.24-.1.32-.05.08-.11.14-.17.17-.06.04-.14.06-.22.06h-6.67v7.12h7.89c.08,0,.15.02.22.06.06.04.12.11.18.19.04.09.09.2.11.34.01.14.03.31.03.51"/>
  <path class="cls-1" d="M236.27,383.26c0,.21,0,.38-.04.52-.02.13-.05.25-.09.35-.04.09-.1.17-.18.22-.06.05-.14.06-.24.06h-8.79c-.25,0-.45-.07-.66-.24-.21-.15-.32-.44-.32-.84v-18.41c0-.08.01-.15.06-.21.04-.06.11-.1.22-.14.09-.04.24-.07.41-.09.18-.02.38-.04.63-.04s.47.02.64.04c.18.03.32.06.41.09.09.04.17.08.22.14.03.07.06.14.06.21v17.2h7.13c.1,0,.18.02.24.08.07.04.13.11.18.19.05.09.08.2.09.35.03.14.04.31.04.52"/>
  <path class="cls-1" d="M258.94,384.02c0,.08-.01.15-.05.21-.02.06-.1.11-.2.15-.1.04-.24.07-.43.1-.19.02-.43.03-.74.03-.26,0-.49-.01-.65-.03-.17-.02-.3-.06-.41-.1-.09-.05-.18-.11-.24-.19-.05-.08-.1-.19-.14-.31l-1.82-4.69c-.22-.53-.44-1.02-.67-1.47-.23-.45-.51-.83-.83-1.15-.31-.32-.68-.57-1.11-.75-.43-.18-.95-.28-1.55-.28h-1.77v8.48c0,.08-.02.15-.07.21-.04.06-.12.11-.22.15-.1.04-.23.07-.39.09-.17.02-.38.04-.64.04s-.47-.02-.64-.04c-.17-.02-.31-.06-.41-.09-.11-.04-.18-.08-.21-.15-.04-.06-.06-.13-.06-.21v-18.42c0-.4.1-.68.32-.83.2-.16.43-.24.67-.24h4.22c.51,0,.92.02,1.25.04.33.02.63.05.89.08.77.13,1.45.34,2.04.63.59.28,1.08.65,1.48,1.09.4.44.7.94.9,1.51.19.57.3,1.2.3,1.89s-.09,1.26-.27,1.78c-.18.53-.45,1-.77,1.4-.34.41-.75.76-1.22,1.05-.47.3-1,.55-1.58.75.33.14.63.32.9.55.26.22.51.48.74.78.24.32.44.66.65,1.07.2.4.41.85.61,1.35l1.78,4.38c.14.37.24.64.28.78.04.15.06.27.06.35M254.95,370.05c0-.78-.17-1.44-.52-1.98-.35-.53-.93-.92-1.74-1.16-.26-.07-.55-.12-.88-.15-.32-.04-.74-.05-1.27-.05h-2.23v6.7h2.58c.7,0,1.3-.08,1.81-.25.5-.17.93-.4,1.27-.71.34-.3.59-.66.75-1.07.16-.41.24-.86.24-1.34"/>
  <path class="cls-1" d="M273.51,383.32c0,.19-.01.35-.03.49-.01.14-.06.25-.1.35-.06.09-.11.15-.18.2-.07.04-.14.06-.22.06h-9.54c-.24,0-.46-.08-.67-.24-.2-.15-.31-.44-.31-.84v-17.73c0-.4.11-.68.31-.83.21-.16.44-.24.67-.24h9.44c.08,0,.15.02.22.06.06.04.12.11.15.2.04.09.07.21.11.35.02.14.03.31.03.51,0,.19-.01.35-.03.49-.04.14-.07.25-.11.34-.04.09-.1.15-.15.19-.07.04-.14.06-.22.06h-7.79v6.24h6.67c.08,0,.16.03.23.07.07.05.12.11.16.19.05.08.09.2.11.34.02.15.03.31.03.51,0,.18,0,.34-.03.47-.02.13-.05.24-.11.32-.04.08-.09.14-.16.17-.07.04-.15.06-.23.06h-6.67v7.12h7.89c.08,0,.16.02.22.06.07.04.12.11.18.19.04.09.09.2.1.34.02.14.03.31.03.51"/>
  <path class="cls-1" d="M287.88,378.83c0,.93-.17,1.77-.52,2.49-.34.72-.82,1.34-1.43,1.85-.6.51-1.32.89-2.15,1.15-.82.26-1.72.39-2.66.39-.66,0-1.29-.06-1.85-.17-.57-.12-1.08-.25-1.52-.41-.45-.17-.83-.33-1.12-.51-.31-.18-.51-.32-.64-.45-.11-.12-.2-.28-.26-.46-.06-.19-.09-.45-.09-.76,0-.23.01-.41.04-.56.02-.15.05-.27.09-.36.04-.09.09-.15.15-.19.06-.04.13-.06.21-.06.15,0,.35.09.62.27.27.17.6.36,1,.57.41.2.9.39,1.49.57.58.18,1.25.27,2,.27.58,0,1.1-.08,1.58-.23.47-.15.88-.37,1.23-.65.34-.28.6-.63.79-1.04.19-.41.27-.87.27-1.39,0-.57-.12-1.05-.38-1.45-.26-.4-.59-.75-1.01-1.05-.43-.3-.9-.58-1.44-.84-.54-.25-1.09-.51-1.66-.76-.55-.26-1.12-.55-1.64-.86-.53-.32-1.01-.7-1.43-1.13-.42-.42-.76-.93-1.02-1.51-.26-.58-.4-1.27-.4-2.08s.16-1.57.46-2.22c.31-.65.72-1.19,1.26-1.64.53-.44,1.17-.77,1.92-1,.74-.23,1.55-.35,2.41-.35.43,0,.88.04,1.33.12.44.08.85.17,1.25.3.4.13.75.27,1.06.43.31.16.51.28.61.38.09.1.16.17.19.23.04.06.06.13.08.21.02.09.04.2.05.32.01.12.01.28.01.47s0,.35-.01.49c-.02.15-.05.26-.08.36-.03.1-.07.17-.13.22-.05.04-.12.07-.19.07-.11,0-.28-.07-.53-.22-.24-.14-.53-.3-.88-.48-.35-.18-.76-.34-1.23-.49-.49-.15-1.01-.22-1.6-.22s-1.04.07-1.46.22c-.4.15-.74.34-1.01.59-.27.25-.47.54-.6.88-.13.34-.2.7-.2,1.08,0,.55.12,1.03.38,1.43.26.4.59.75,1.03,1.06.43.31.9.59,1.45.85.55.25,1.09.51,1.66.77.57.27,1.12.55,1.66.87.55.31,1.02.68,1.46,1.1.42.43.77.92,1.03,1.51.26.58.39,1.27.39,2.05"/>
  <path class="cls-1" d="M308,374.24c0,1.61-.19,3.06-.57,4.35-.38,1.29-.94,2.39-1.7,3.29-.75.91-1.7,1.6-2.84,2.09-1.14.49-2.47.73-3.98.73s-2.79-.23-3.88-.67c-1.09-.45-2-1.09-2.71-1.94-.71-.85-1.24-1.9-1.59-3.17-.35-1.26-.52-2.7-.52-4.34s.18-3,.57-4.28c.38-1.28.95-2.37,1.71-3.26.76-.9,1.71-1.59,2.84-2.08,1.13-.49,2.45-.73,3.97-.73s2.75.22,3.83.66c1.08.44,1.99,1.09,2.71,1.94.73.85,1.27,1.89,1.62,3.13.35,1.25.53,2.67.53,4.29M305.19,374.42c0-1.13-.08-2.17-.28-3.14-.2-.97-.54-1.81-1.01-2.51-.46-.72-1.08-1.28-1.86-1.67-.77-.4-1.74-.6-2.88-.6s-2.12.21-2.89.65c-.78.43-1.41,1-1.89,1.72-.5.72-.83,1.55-1.05,2.51-.2.96-.31,1.97-.31,3.03,0,1.17.1,2.24.29,3.22.2.98.52,1.82.98,2.54.46.72,1.08,1.26,1.85,1.66.78.4,1.74.59,2.91.59s2.13-.21,2.91-.64c.79-.43,1.43-1.01,1.91-1.74.48-.73.82-1.58,1.03-2.54.21-.97.29-1.98.29-3.06"/>
  <path class="cls-1" d="M325.13,384.02c0,.08-.01.15-.05.21-.04.06-.1.11-.2.15-.11.04-.25.07-.43.1-.18.02-.43.03-.74.03-.27,0-.48-.01-.65-.03-.17-.02-.31-.06-.41-.1-.1-.05-.18-.11-.24-.19-.06-.08-.11-.19-.15-.31l-1.82-4.69c-.21-.53-.43-1.02-.66-1.47-.23-.45-.51-.83-.83-1.15-.32-.32-.69-.57-1.12-.75-.42-.18-.95-.28-1.55-.28h-1.76v8.48c0,.08-.03.15-.07.21-.05.06-.12.11-.22.15-.1.04-.24.07-.4.09-.15.02-.37.04-.63.04s-.47-.02-.64-.04c-.17-.02-.3-.06-.41-.09-.09-.04-.17-.08-.2-.15-.04-.06-.06-.13-.06-.21v-18.42c0-.4.11-.68.32-.83.21-.16.44-.24.67-.24h4.23c.5,0,.91.02,1.25.04.33.02.63.05.9.08.77.13,1.44.34,2.04.63.59.28,1.09.65,1.48,1.09.4.44.7.94.9,1.51.2.57.3,1.2.3,1.89s-.08,1.26-.26,1.78c-.18.53-.44,1-.77,1.4-.34.41-.75.76-1.21,1.05-.47.3-1.01.55-1.59.75.33.14.63.32.9.55.27.22.52.48.74.78.24.32.45.66.66,1.07.2.4.41.85.61,1.35l1.79,4.38c.14.37.24.64.27.78.04.15.06.27.06.35M321.15,370.05c0-.78-.18-1.44-.53-1.98-.34-.53-.93-.92-1.75-1.16-.25-.07-.54-.12-.86-.15-.33-.04-.75-.05-1.27-.05h-2.23v6.7h2.58c.7,0,1.29-.08,1.81-.25.5-.17.92-.4,1.26-.71.34-.3.59-.66.75-1.07.15-.41.24-.86.24-1.34"/>
  <path class="cls-1" d="M340.8,365.67c0,.2-.01.37-.03.5-.02.15-.05.26-.1.35-.04.08-.11.15-.17.19-.06.04-.14.07-.22.07h-5.59v17.24c0,.08-.02.15-.07.21-.04.06-.11.11-.21.15-.1.04-.24.07-.41.09-.17.02-.38.04-.63.04s-.46-.02-.63-.04c-.18-.02-.31-.06-.41-.09-.11-.04-.17-.08-.21-.15-.05-.06-.06-.13-.06-.21v-17.24h-5.59c-.08,0-.15-.03-.23-.07-.07-.04-.12-.11-.16-.19-.04-.09-.08-.2-.1-.35-.03-.13-.04-.3-.04-.5s.01-.37.04-.52c.02-.15.06-.27.1-.36.04-.09.09-.15.16-.2.07-.04.14-.06.23-.06h13.83c.08,0,.16.02.22.06.06.04.13.11.17.2.05.09.08.21.1.36.02.15.03.32.03.52"/>
  <path class="cls-1" d="M349.17,379.17c0-.57.08-1.1.23-1.6.16-.51.4-1,.72-1.48.33-.48.76-.94,1.29-1.38.53-.44,1.16-.89,1.91-1.34-.41-.56-.76-1.06-1.05-1.51-.3-.45-.53-.86-.72-1.26-.19-.39-.33-.75-.41-1.11-.08-.35-.12-.71-.12-1.06,0-.63.12-1.24.33-1.82.21-.58.56-1.09,1.03-1.54.48-.44,1.09-.8,1.83-1.05.75-.27,1.66-.39,2.73-.39.9,0,1.68.09,2.34.29.67.19,1.21.47,1.65.83.43.36.76.79.98,1.3.22.51.33,1.07.33,1.69s-.1,1.16-.3,1.66c-.19.5-.5.99-.94,1.46-.43.47-.98.94-1.66,1.41-.66.46-1.48.96-2.43,1.47.35.42.73.86,1.14,1.32.42.46.84.92,1.28,1.38.44.46.9.91,1.37,1.36.46.45.92.87,1.37,1.29.2-.28.39-.59.56-.95.17-.35.31-.72.43-1.12.13-.39.22-.8.27-1.21.06-.41.1-.83.1-1.24v-.55c0-.11.01-.19.05-.26.04-.06.09-.12.18-.17.08-.04.2-.07.36-.1.15-.02.35-.03.62-.03.22,0,.42,0,.58.02.15,0,.29.02.39.07.11.04.18.09.22.17.05.08.07.18.07.32v.38c0,.57-.05,1.13-.14,1.69-.1.54-.24,1.09-.4,1.62-.18.53-.38,1.04-.64,1.52-.24.48-.52.92-.83,1.34.46.36.86.68,1.21.92.34.24.63.44.87.6.25.15.43.25.6.32.15.06.29.09.38.09.11,0,.2,0,.3-.02.08,0,.16.01.22.05.06.04.1.12.13.24.04.13.05.32.05.57s-.01.46-.02.62c-.01.15-.03.27-.05.34-.03.07-.07.13-.13.19-.06.05-.18.09-.35.14-.15.04-.37.06-.64.06-.2,0-.43-.03-.68-.1-.24-.07-.53-.2-.86-.37-.33-.19-.71-.42-1.14-.73-.44-.31-.95-.7-1.53-1.17-.43.34-.88.66-1.36.96-.47.3-.98.56-1.52.77-.54.21-1.1.37-1.69.49-.6.11-1.23.18-1.92.18s-1.26-.06-1.84-.17c-.58-.12-1.11-.28-1.6-.49-.48-.21-.93-.47-1.33-.79-.39-.32-.71-.67-.99-1.09-.26-.4-.48-.86-.63-1.35-.15-.5-.22-1.05-.22-1.63M351.92,378.92c0,.53.1,1.02.27,1.46.18.44.44.82.79,1.14.34.32.79.58,1.3.76.52.18,1.13.26,1.81.26.42,0,.84-.04,1.23-.13.4-.09.78-.2,1.15-.35.36-.15.71-.33,1.04-.54.32-.21.62-.43.9-.67-.53-.46-1.06-.94-1.59-1.43-.52-.5-1.04-.99-1.53-1.5-.5-.5-.97-1-1.42-1.5-.45-.5-.88-.98-1.25-1.45-.52.33-.95.65-1.29.97-.34.33-.62.65-.82.98-.21.32-.37.65-.46.97-.09.33-.14.68-.14,1.04M353.7,368.22c0,.27.05.55.12.85.08.28.19.58.36.89.14.32.34.66.58,1.01.23.36.5.76.81,1.2.76-.42,1.39-.81,1.89-1.16.51-.36.91-.7,1.22-1.03.31-.32.53-.65.66-.98.14-.32.21-.67.21-1.04,0-.31-.05-.58-.16-.85-.1-.28-.28-.51-.51-.72-.23-.21-.53-.38-.89-.5-.35-.13-.79-.18-1.29-.18-.53,0-1,.07-1.37.21-.37.14-.68.32-.92.55-.24.24-.41.5-.53.81-.12.3-.18.62-.18.95"/>
  <path class="cls-1" d="M393.05,367.23c0,.19-.02.37-.04.51-.02.15-.06.28-.09.38-.05.09-.09.17-.15.21-.07.04-.13.06-.2.06-.12,0-.32-.1-.61-.29-.29-.2-.67-.41-1.16-.65-.47-.23-1.05-.45-1.72-.64-.67-.2-1.47-.29-2.39-.29-1.1,0-2.08.2-2.95.6-.87.4-1.61.95-2.22,1.66-.6.7-1.07,1.54-1.39,2.52-.33.97-.49,2.03-.49,3.16,0,1.28.18,2.4.53,3.39.35.98.84,1.81,1.47,2.49.62.67,1.38,1.19,2.24,1.54.86.35,1.82.53,2.85.53.62,0,1.24-.08,1.86-.23.63-.15,1.22-.37,1.77-.67v-5.8h-4.62c-.18,0-.3-.09-.39-.26-.09-.17-.13-.44-.13-.81,0-.2,0-.36.03-.5.01-.14.05-.25.09-.34.05-.09.1-.15.17-.19.06-.05.13-.06.22-.06h6.32c.11,0,.22.02.34.06.11.04.21.1.3.18.1.08.17.19.22.34.06.15.08.31.08.49v7.57c0,.27-.05.5-.14.69-.09.19-.29.37-.58.51-.3.15-.69.31-1.15.48-.47.18-.97.32-1.46.45-.5.13-1.02.22-1.53.28-.51.06-1.02.09-1.52.09-1.55,0-2.91-.24-4.12-.72-1.21-.48-2.23-1.15-3.07-2.03-.84-.88-1.47-1.94-1.92-3.17-.44-1.22-.66-2.6-.66-4.12s.24-3,.72-4.29c.47-1.28,1.14-2.37,2-3.27.87-.91,1.91-1.6,3.12-2.1,1.21-.5,2.56-.75,4.03-.75.76,0,1.47.07,2.14.2.66.13,1.26.29,1.78.46.51.19.95.38,1.3.59.37.21.6.38.73.52.14.13.23.28.27.46.05.17.08.43.08.75"/>
  <path class="cls-1" d="M414.31,374.24c0,1.61-.2,3.06-.57,4.35-.38,1.29-.95,2.39-1.69,3.29-.76.91-1.69,1.6-2.83,2.09-1.15.49-2.46.73-3.98.73s-2.79-.23-3.89-.67c-1.08-.45-1.98-1.09-2.7-1.94-.71-.85-1.24-1.9-1.59-3.17-.35-1.26-.53-2.7-.53-4.34s.2-3,.56-4.28c.39-1.28.96-2.37,1.72-3.26.76-.9,1.7-1.59,2.84-2.08,1.14-.49,2.47-.73,3.98-.73s2.74.22,3.83.66c1.08.44,1.99,1.09,2.71,1.94.72.85,1.26,1.89,1.61,3.13.35,1.25.53,2.67.53,4.29M411.51,374.42c0-1.13-.1-2.17-.3-3.14-.21-.97-.53-1.81-1.01-2.51-.46-.72-1.09-1.28-1.86-1.67-.78-.4-1.74-.6-2.88-.6s-2.11.21-2.89.65c-.78.43-1.41,1-1.9,1.72-.49.72-.83,1.55-1.04,2.51-.22.96-.32,1.97-.32,3.03,0,1.17.09,2.24.3,3.22.18.98.52,1.82.97,2.54.46.72,1.08,1.26,1.86,1.66.77.4,1.74.59,2.9.59s2.13-.21,2.92-.64c.79-.43,1.42-1.01,1.9-1.74.49-.73.83-1.58,1.03-2.54.21-.97.31-1.98.31-3.06"/>
  <path class="cls-1" d="M428.49,383.26c0,.21-.02.38-.03.52-.02.13-.06.25-.09.35-.06.09-.11.17-.17.22-.07.05-.14.06-.24.06h-8.8c-.23,0-.45-.07-.66-.24-.21-.15-.32-.44-.32-.84v-18.41c0-.08.03-.15.07-.21.04-.06.11-.1.21-.14.11-.04.25-.07.41-.09.18-.02.39-.04.63-.04s.47.02.64.04c.17.03.31.06.4.09.11.04.18.08.21.14.05.07.07.14.07.21v17.2h7.13c.09,0,.17.02.24.08.06.04.12.11.17.19.03.09.07.2.09.35.01.14.03.31.03.52"/>
  <path class="cls-1" d="M441.54,365.67c0,.2,0,.37-.02.5-.03.15-.06.26-.11.35-.05.08-.12.15-.19.19-.07.04-.13.07-.2.07h-7.28v6.76h6.89c.07,0,.14.01.2.05.06.04.12.09.18.18.05.08.08.19.1.33.02.14.03.31.03.53,0,.19-.01.36-.03.5-.02.14-.06.25-.1.34-.06.09-.12.15-.18.2-.07.04-.13.07-.2.07h-6.89v8.29c0,.06-.02.13-.06.2-.04.06-.11.12-.21.15-.11.04-.24.07-.4.09-.17.02-.39.04-.65.04-.24,0-.46-.02-.63-.04-.17-.02-.31-.06-.43-.09-.1-.04-.16-.09-.2-.15-.05-.07-.07-.14-.07-.2v-18.42c0-.4.11-.68.32-.83.21-.16.43-.24.66-.24h8.94c.08,0,.13.02.2.06.07.04.13.11.19.2.05.09.08.21.11.36.01.15.02.32.02.52"/>
  <path class="cls-1" d="M130.45,258.67v-.53c1.62-.4,2.72-1.37,3.33-2.92.6-1.53.89-5.36.89-11.48v-21.78c0-1.74-.27-3.02-.81-3.84-.54-.83-1.44-1.35-2.71-1.56l.04-.71c.96.02,1.97.04,3.01.05,1.04.01,2.5.02,4.35.02,1.66,0,3.65-.02,6-.07,2.34-.04,3.85-.06,4.52-.06,4.44,0,8.04.34,10.85,1.03,2.81.68,5.26,1.79,7.4,3.32,2.6,1.9,4.57,4.2,5.91,6.93,1.34,2.73,2.01,5.81,2.01,9.24,0,2.88-.44,5.63-1.33,8.25-.88,2.62-2.11,4.87-3.71,6.74-2.28,2.66-4.92,4.56-7.91,5.68-2.98,1.13-7.07,1.7-12.25,1.7h-19.6ZM144.79,218.36v25.2c0,2.84.04,5.05.12,6.67.07,1.61.2,2.79.35,3.54.26,1.09.77,1.86,1.57,2.29.78.43,2.19.64,4.2.64,4.02,0,7.13-1.72,9.34-5.16,2.21-3.44,3.32-8.28,3.32-14.53s-1.1-11.36-3.3-14.42c-2.19-3.06-5.66-4.59-10.39-4.59-.75,0-1.55.03-2.41.08-.86.06-1.79.15-2.8.27Z"/>
  <path class="cls-1" d="M176.58,241.53c0-5.41,1.65-9.79,4.95-13.11,3.3-3.33,7.65-5,13.05-5s9.62,1.67,12.91,5c3.28,3.32,4.93,7.66,4.93,13.01s-1.66,9.75-4.97,13.07c-3.32,3.32-7.67,4.98-13.1,4.98s-9.49-1.69-12.8-5.06c-3.32-3.37-4.97-7.67-4.97-12.89ZM194.47,257.47c2.7,0,4.76-1.35,6.17-4.07,1.4-2.71,2.1-6.72,2.1-12.03s-.7-9.2-2.1-11.9c-1.41-2.7-3.47-4.04-6.17-4.04s-4.68,1.35-6.06,4.07c-1.4,2.72-2.08,6.66-2.08,11.81s.69,9.33,2.06,12.06c1.39,2.74,3.42,4.1,6.09,4.1Z"/>
  <path class="cls-1" d="M428.98,241.53c0-5.41,1.67-9.79,4.96-13.11,3.3-3.33,7.66-5,13.05-5s9.62,1.67,12.9,5c3.29,3.32,4.93,7.66,4.93,13.01s-1.66,9.75-4.97,13.07c-3.31,3.32-7.67,4.98-13.09,4.98s-9.49-1.69-12.8-5.06c-3.31-3.37-4.98-7.67-4.98-12.89ZM446.88,257.47c2.71,0,4.77-1.35,6.17-4.07,1.4-2.71,2.1-6.72,2.1-12.03s-.7-9.2-2.1-11.9c-1.41-2.7-3.46-4.04-6.17-4.04s-4.67,1.35-6.06,4.07c-1.4,2.72-2.09,6.66-2.09,11.81s.68,9.33,2.07,12.06c1.39,2.74,3.41,4.1,6.08,4.1Z"/>
  <path class="cls-1" d="M211.47,258.86l-.03-.71c1.53-.53,2.57-1.55,3.12-3.07.55-1.51.83-4.93.83-10.25v-10.7c0-2.81-.24-4.61-.72-5.4-.48-.78-1.38-1.23-2.7-1.33v-.77c2.32-.3,4.47-.66,6.44-1.05,1.97-.4,3.75-.84,5.33-1.34v7.51c1.04-2.79,2.52-4.89,4.43-6.28,1.91-1.4,4.25-2.09,7.05-2.09s4.84.74,6.54,2.22c1.68,1.49,2.73,3.56,3.12,6.22,1.09-2.83,2.57-4.94,4.46-6.32,1.88-1.37,4.24-2.06,7.08-2.06,3.75,0,6.47,1.27,8.16,3.8,1.69,2.54,2.53,6.66,2.53,12.38v4.47c0,5.78.28,9.45.85,11.02.58,1.58,1.64,2.59,3.21,3.06l-.03.71c-.99-.06-2.08-.11-3.28-.14-1.21-.03-2.96-.04-5.27-.04-2.07,0-3.7.01-4.89.04-1.2.03-2.33.08-3.41.14v-.71c1.5-.53,2.54-1.53,3.13-2.99.58-1.46.87-4.54.87-9.22v-5.73c0-4.64-.46-8.04-1.37-10.18-.91-2.15-2.35-3.22-4.32-3.22-2.11,0-3.83,1.23-5.14,3.67-1.33,2.45-1.99,5.69-1.99,9.73v4.61c0,5.36.28,8.81.86,10.34.57,1.53,1.62,2.53,3.15,2.99l-.03.71c-1.01-.06-2.1-.11-3.28-.14-1.19-.03-2.88-.04-5.09-.04-1.99,0-3.57.01-4.75.04-1.18.03-2.31.08-3.39.14v-.71c1.5-.53,2.55-1.53,3.13-2.99.58-1.46.88-4.54.88-9.22v-5.73c0-4.71-.46-8.11-1.36-10.19-.9-2.1-2.34-3.15-4.3-3.15-2.07,0-3.76,1.23-5.08,3.67-1.31,2.45-1.98,5.67-1.98,9.67v4.61c0,5.34.29,8.78.86,10.31.58,1.52,1.62,2.53,3.15,3.02v.71c-1.01-.06-2.1-.11-3.28-.14-1.19-.03-2.92-.04-5.21-.04-2.07,0-3.7.01-4.88.04-1.18.03-2.31.08-3.38.14Z"/>
  <path class="cls-1" d="M291.63,215.85c1.65.02,3.37.04,5.12.05,1.75.01,4.12.02,7.09.02h4.33c4.37,0,7.72.12,10.03.37,2.3.25,4.3.65,6.02,1.2,2.51.82,4.46,2.08,5.86,3.76,1.4,1.68,2.11,3.62,2.11,5.82,0,3.57-1.92,6.4-5.75,8.52-3.85,2.12-9.06,3.18-15.67,3.18-.62-.02-1.36-.05-2.2-.08-.83-.03-1.79-.07-2.89-.11v5.19c0,5.63.32,9.31.96,11.03.64,1.73,1.83,2.81,3.59,3.24l-.03.84c-1.31-.06-2.68-.11-4.12-.14-1.43-.03-3.37-.04-5.79-.04s-4.16.01-5.53.04c-1.36.03-2.65.08-3.88.14v-.84c1.69-.39,2.85-1.39,3.47-3.01.61-1.62.92-5.38.92-11.26v-21.91c0-1.5-.27-2.65-.83-3.43-.56-.79-1.5-1.36-2.84-1.72l.03-.85ZM305.69,236.05c.6.13,1.2.23,1.8.29.6.06,1.22.1,1.87.1,3.55,0,6.27-.81,8.18-2.43,1.9-1.62,2.84-3.93,2.84-6.94s-.98-5.24-2.96-6.7c-1.98-1.46-5-2.19-9.05-2.19-.43,0-1.15.03-2.15.09-.2,0-.38.01-.52.04v17.75Z"/>
  <path class="cls-1" d="M364.09,237.34h-23.38l-.03.22c-.06,1.33-.09,2.32-.09,2.97,0,4.96.95,8.84,2.84,11.63,1.91,2.79,4.54,4.19,7.88,4.19,2.8,0,5.19-1.03,7.15-3.08,1.97-2.05,3.45-5.07,4.45-9.07l1.67,1.62c-1.28,4.57-3.3,8-6.05,10.29-2.75,2.29-6.24,3.43-10.48,3.43-5.28,0-9.56-1.69-12.87-5.08-3.29-3.38-4.94-7.77-4.94-13.16s1.63-9.57,4.89-12.91c3.24-3.36,7.46-5.03,12.62-5.03,4.63,0,8.36,1.21,11.2,3.64,2.84,2.42,4.56,5.87,5.15,10.34ZM353.47,234.99c-.09-2.96-.66-5.3-1.74-7-1.08-1.71-2.49-2.56-4.23-2.56s-3.21.83-4.39,2.5c-1.18,1.66-1.96,4.02-2.34,7.07h12.7Z"/>
  <path class="cls-1" d="M392.5,253.58c-1.23,2.06-2.69,3.58-4.38,4.56-1.68.98-3.71,1.47-6.05,1.47-4.74,0-8.61-1.64-11.57-4.93-2.97-3.29-4.45-7.58-4.45-12.89s1.49-9.55,4.49-13.05c3-3.5,6.72-5.25,11.19-5.25,2.09,0,3.99.43,5.69,1.3,1.7.87,3.22,2.18,4.57,3.92v-8.25c0-2.94-.22-4.76-.67-5.49-.44-.72-1.28-1.13-2.5-1.24v-.71c2.27-.36,4.39-.75,6.37-1.14,1.98-.4,3.84-.83,5.6-1.31-.08,2.17-.14,4.26-.18,6.29-.04,2.01-.06,3.95-.06,5.79v20.65c0,5.63.28,9.41.83,11.34.55,1.94,1.55,3.09,3,3.46v.7c-.65-.04-1.35-.07-2.07-.1-.73-.02-1.81-.02-3.23-.02-1.3,0-2.26,0-2.88.02-.6.02-1.16.06-1.66.1-.41-.79-.79-1.62-1.12-2.5-.34-.87-.64-1.77-.89-2.72ZM383.92,226.19c-2.58,0-4.58,1.34-5.99,3.99-1.42,2.66-2.12,6.47-2.12,11.41s.7,8.87,2.12,11.52c1.41,2.66,3.46,3.98,6.14,3.98s4.51-1.33,5.85-3.98c1.36-2.65,2.04-6.5,2.04-11.52s-.69-8.82-2.06-11.45c-1.38-2.63-3.37-3.95-5.99-3.95Z"/>
  <path class="cls-1" d="M405.37,258.86v-.77c1.52-.54,2.57-1.52,3.14-2.95.57-1.43.86-4.47.86-9.13v-11.89c0-2.81-.24-4.6-.72-5.38-.48-.77-1.4-1.23-2.78-1.35v-.77c2.76-.37,5.18-.75,7.27-1.15,2.08-.39,3.82-.81,5.23-1.24v8.05c1.29-2.96,2.81-5.19,4.6-6.68,1.78-1.49,3.8-2.24,6.09-2.24.32,0,.57,0,.74.02.18,0,.34.03.48.05l-3.42,10.76h-.79c-.33-.44-.69-.76-1.11-.98-.42-.23-.89-.34-1.39-.34-1.69,0-2.97.81-3.86,2.43-.89,1.62-1.33,3.96-1.33,7.01v3.16c0,5,.29,8.25.86,9.73.57,1.49,1.61,2.45,3.15,2.9l-.04.77c-1-.06-2.1-.11-3.31-.14-1.22-.03-2.98-.04-5.29-.04-2.08,0-3.71.01-4.91.04-1.2.03-2.35.08-3.44.14Z"/>
</svg>