<svg id="Group_895" data-name="Group 895" xmlns="http://www.w3.org/2000/svg" xmlns:xlink="http://www.w3.org/1999/xlink" width="255.784" height="53.034" viewBox="0 0 255.784 53.034">
  <defs>
    <clipPath id="clip-path">
      <rect id="Rectangle_647" data-name="Rectangle 647" width="255.784" height="53.034" fill="#fff"/>
    </clipPath>
  </defs>
  <g id="Group_894" data-name="Group 894" clip-path="url(#clip-path)">
    <path id="Path_1286" data-name="Path 1286" d="M2205.875,198.081c.056.8.175,1.611.156,2.413q-.017.668-.045,1.336c-.054,1.336-.135,2.671-.2,4.007l.44-.35v-7.293l-.353-.113" transform="translate(-1950.445 -175.151)" fill="#fff"/>
    <path id="Path_1287" data-name="Path 1287" d="M1804.043,22.93c0-.039,0-.078,0-.117l-.09-.234c-.017-.153-.025-.308-.053-.459a25.639,25.639,0,0,0-10.245-16.73c-7.935-5.8-16.648-6.935-25.777-3.328a26.446,26.446,0,0,0,14.146,50.618,25.873,25.873,0,0,0,17.713-11.3,26.653,26.653,0,0,0,3.411-7.112l.334-1.154.031-.228.31-1.278c.008-.076.016-.153.024-.229l.1-.465.018-.23c.064-1.336.144-2.671.2-4.007q.027-.668.044-1.336c.02-.8-.1-1.609-.156-2.413m-16.5,13.277h-19.48V16.8h3.922v6.33h3.847V16.792h3.973v6.33h3.8V16.807h3.935Z" transform="translate(-1548.613 0)" fill="#fff"/>
    <path id="Path_1288" data-name="Path 1288" d="M2202.221,273.063q-.155.639-.31,1.278a1.24,1.24,0,0,0,.31-1.278" transform="translate(-1947.017 -241.453)" fill="#fff"/>
    <path id="Path_1289" data-name="Path 1289" d="M1403.574,288.078l.1.126h0l-.1-.127" transform="translate(-1241.096 -254.73)" fill="#fff"/>
    <path id="Path_1290" data-name="Path 1290" d="M1406.361,155h0a3.147,3.147,0,0,0,.669-.5,3.147,3.147,0,0,1-.669.5" transform="translate(-1243.56 -136.615)" fill="#fff"/>
    <path id="Path_1291" data-name="Path 1291" d="M1396.493,275.62l-.314-.513h0l-.572-1.046.572,1.046h0l.314.513a.067.067,0,0,0,.036.063.067.067,0,0,1-.036-.063" transform="translate(-1234.051 -242.336)" fill="#fff"/>
    <path id="Path_1292" data-name="Path 1292" d="M1404.5,289.21l.1.138a.1.1,0,0,0,.041.071.1.1,0,0,1-.041-.071l-.1-.138" transform="translate(-1241.916 -255.731)" fill="#fff"/>
    <path id="Path_1293" data-name="Path 1293" d="M1405.746,291.017l.412.519.139.18-.139-.18-.412-.519" transform="translate(-1243.016 -257.329)" fill="#fff"/>
    <path id="Path_1294" data-name="Path 1294" d="M1410.7,297.277l.539.595.111.095-.111-.1-.539-.595" transform="translate(-1247.396 -262.864)" fill="#fff"/>
    <path id="Path_1295" data-name="Path 1295" d="M1394.6,272.076l.087.158a.077.077,0,0,0,.029.072.077.077,0,0,1-.029-.072l-.087-.158" transform="translate(-1233.164 -240.58)" fill="#fff"/>
    <path id="Path_1296" data-name="Path 1296" d="M1431.875,245.043l-.136-.15h0l.136.15" transform="translate(-1266 -216.544)" fill="#fff"/>
    <path id="Path_1297" data-name="Path 1297" d="M1428.432,239.833l-.34-.485-.1-.178.1.178.34.485" transform="translate(-1262.691 -211.484)" fill="#fff"/>
    <path id="Path_1298" data-name="Path 1298" d="M1534.263,267.2l-.506.3a.089.089,0,0,0-.064.032.088.088,0,0,1,.064-.031l.506-.3" transform="translate(-1356.152 -236.267)" fill="#fff"/>
    <path id="Path_1299" data-name="Path 1299" d="M1390.669,262.059l.424,1.084a.092.092,0,0,0,.032.076.092.092,0,0,1-.031-.076l-.424-1.084" transform="translate(-1229.684 -231.723)" fill="#fff"/>
    <path id="Path_1300" data-name="Path 1300" d="M1416.562,141.855l.035-.029-.035.029c-.214.322-.424.648-.66.949.236-.3.446-.628.66-.949" transform="translate(-1251.996 -125.409)" fill="#fff"/>
    <path id="Path_1301" data-name="Path 1301" d="M1433.326,134.092l-.324.357-.374.448.374-.448.324-.357c0-.047-.008-.093-.011-.137,0,.044.008.09.011.137" transform="translate(-1266.786 -118.448)" fill="#fff"/>
    <path id="Path_1302" data-name="Path 1302" d="M1388.563,255.077l.217.719a.122.122,0,0,0,.027.089.122.122,0,0,1-.027-.089l-.217-.719" transform="translate(-1227.822 -225.549)" fill="#fff"/>
    <path id="Path_1303" data-name="Path 1303" d="M1386.04,243.456a.925.925,0,0,0-.239-.29c0-.036-.007-.072-.011-.109,0,.036.007.072.011.109a.925.925,0,0,1,.239.29" transform="translate(-1225.371 -214.921)" fill="#fff"/>
    <path id="Path_1304" data-name="Path 1304" d="M1426.7,137.18l-.117.1h0l.117-.1" transform="translate(-1261.439 -121.3)" fill="#fff"/>
    <path id="Path_1305" data-name="Path 1305" d="M1426.747,237.29l-.135-.179a.074.074,0,0,0-.029-.067.074.074,0,0,1,.029.067l.135.179" transform="translate(-1261.441 -209.604)" fill="#fff"/>
    <path id="Path_1306" data-name="Path 1306" d="M1573.286,287.14l.039-.057h0l-.039.057" transform="translate(-1391.162 -253.85)" fill="#fff"/>
    <path id="Path_1307" data-name="Path 1307" d="M1568.7,237.824l-.1.143h0l.1-.143" transform="translate(-1387.023 -210.293)" fill="#fff"/>
    <path id="Path_1308" data-name="Path 1308" d="M1553.058,306.5q-.24.208-.492.4.252-.194.492-.4" transform="translate(-1372.84 -271.022)" fill="#fff"/>
    <path id="Path_1309" data-name="Path 1309" d="M1404.463,289.158Z" transform="translate(-1241.882 -255.685)" fill="#fff"/>
    <path id="Path_1310" data-name="Path 1310" d="M1580.881,211.039h0c.072-.178.143-.356.214-.534-.072.178-.142.356-.214.534" transform="translate(-1397.877 -186.137)" fill="#fff"/>
    <path id="Path_1311" data-name="Path 1311" d="M1406.36,144.011h0l1.764-1.937-1.764,1.937" transform="translate(-1243.559 -125.627)" fill="#fff"/>
    <path id="Path_1312" data-name="Path 1312" d="M1548.187,257.1h0l-.379.325-.2.14.2-.14.379-.325" transform="translate(-1368.454 -227.336)" fill="#fff"/>
    <path id="Path_1313" data-name="Path 1313" d="M1416.316,303.236l2.112,1.718h0l-2.112-1.718" transform="translate(-1252.362 -268.133)" fill="#fff"/>
    <path id="Path_1314" data-name="Path 1314" d="M1541.489,261.118l-.605.44-.2.1.2-.1.605-.44" transform="translate(-1362.337 -230.891)" fill="#fff"/>
    <path id="Path_1315" data-name="Path 1315" d="M1538.855,265.82l-.164.121a.105.105,0,0,0-.076.038.105.105,0,0,1,.076-.038l.164-.121" transform="translate(-1360.504 -235.049)" fill="#fff"/>
    <path id="Path_1316" data-name="Path 1316" d="M1557.238,252.189l0,0-.058.057.058-.057Z" transform="translate(-1376.918 -222.995)" fill="#fff"/>
    <path id="Path_1317" data-name="Path 1317" d="M1523.133,319.872c.579-.273,1.141-.592,1.715-.878a.092.092,0,0,0,.072-.038.092.092,0,0,1-.072.037c-.574.287-1.135.605-1.715.879" transform="translate(-1346.814 -282.034)" fill="#fff"/>
    <path id="Path_1318" data-name="Path 1318" d="M1286.859.855a26.467,26.467,0,1,0,26.474,26.873A26.449,26.449,0,0,0,1286.859.855m12.078,27.74q-.019.134-.042.268a12.2,12.2,0,0,1-.719,2.541,7.757,7.757,0,0,1-.494.992c-.168.291-.349.578-.529.865-.152.241-.3.483-.444.728h0l-.039.057-.04.059-.007.011-.045.066-.1.15,0,0a10.26,10.26,0,0,1-1.242,1.472q-.227.223-.466.431t-.492.4a11.624,11.624,0,0,1-1.62,1.04.092.092,0,0,1-.072.038c-.574.286-1.135.605-1.715.879-.193.091-.388.177-.587.255a10.247,10.247,0,0,1-4.653.553.988.988,0,0,1-.261-.1l-.35-.026-2.577-.755-.192-.064-1.273-.658,0,0-.355-.218h0l-2.112-1.718-.111-.095-.539-.595-.019-.021,0,0-.139-.18-.412-.519a.1.1,0,0,1-.041-.071l-.1-.138,0-.006h0l-.1-.126a.067.067,0,0,1-.036-.063l-.314-.513h0l-.572-1.046a.076.076,0,0,1-.029-.072l-.087-.158a.092.092,0,0,1-.031-.076l-.424-1.084A.123.123,0,0,1,1275.5,31l-.217-.719-.084-.237L1274.977,29c0-.036-.007-.072-.011-.109s-.008-.08-.012-.119l-.04-.355-.051-.337c0-.038-.008-.077-.011-.116l-.013-.351q.056-1.328.112-2.656.01-.114.02-.227l.445-1.841,0-.006,0-.006.9-2.112a.122.122,0,0,1,.035-.089l1-1.537,0,0h0l1.764-1.937.035-.028.1-.082.443-.355h0l.117-.1.156-.119,2.075-1.344.155.2-1.106,1.025-.324.357-.373.448h0l-1.26,1.875a.115.115,0,0,1-.03.086l-.7,2.082q-.009.114-.017.229l-.092.813q0,.64,0,1.28l.7,3.125.007.019a.53.53,0,0,1,.053.05s-.014.02-.021.031l.086.25.58,1.151a.074.074,0,0,1,.029.067l.135.179.1.178.34.485h0l.136.15.075.109.465.57,0,0h0l2.238,1.826a.091.091,0,0,1,.042.007.092.092,0,0,1,.034.026l.509.312.18.055a10.833,10.833,0,0,0,1.671.547c.275.066.551.122.829.166q.319.05.641.081a11.4,11.4,0,0,0,1.957.018l.238-.02,2.778-.922s.006,0,.008-.007a.088.088,0,0,1,.064-.032l.506-.3a.106.106,0,0,1,.076-.039l.164-.121.2-.1.605-.44.2-.14.379-.325h0l0,0,.084-.083.028-.028.023-.021.105-.1.285-.28.058-.057,0,0,.006-.006,1.256-1.512h0l.1-.143a.134.134,0,0,1,.039-.088l.081-.133.141-.212.216-.351.047-.106.166-.272a.114.114,0,0,1,.007-.045.109.109,0,0,1,.025-.038l.343-.695h0l.089-.249-.014-.04,0-.007.043-.032,0-.006,0-.006,0-.008.08-.153.055-.189h0l.555-2.385.2-.86.4,1.857.053.226a11.11,11.11,0,0,1,.184,4.1" transform="translate(-1114.547 -0.756)" fill="#fff"/>
    <path id="Path_1319" data-name="Path 1319" d="M1572.785,288.123l.011-.016.006-.008-.016.024" transform="translate(-1390.719 -254.749)" fill="#fff"/>
    <path id="Path_1320" data-name="Path 1320" d="M1579.711,215.425l.061-.117.055-.189h0l-.055.189-.08.153,0,.008,0-.008.019-.036" transform="translate(-1396.823 -190.217)" fill="#fff"/>
    <path id="Path_1321" data-name="Path 1321" d="M1572.91,287.162l-.027.04-.006.008.007-.011.04-.059.039-.057-.053.077" transform="translate(-1390.8 -253.852)" fill="#fff"/>
    <path id="Path_1322" data-name="Path 1322" d="M1507.809,278.128l-.238.02Z" transform="translate(-1333.054 -245.932)" fill="#fff"/>
    <path id="Path_1323" data-name="Path 1323" d="M1569.585,235.913l-.081.133a.136.136,0,0,0-.039.088.135.135,0,0,1,.039-.088l.081-.133" transform="translate(-1387.783 -208.604)" fill="#fff"/>
    <path id="Path_1324" data-name="Path 1324" d="M1570.856,231.05l-.216.351-.141.212.141-.212.216-.351" transform="translate(-1388.697 -204.304)" fill="#fff"/>
    <path id="Path_1325" data-name="Path 1325" d="M1573.794,227.784l-.166.272-.046.106.047-.106Z" transform="translate(-1391.423 -201.416)" fill="#fff"/>
    <path id="Path_1326" data-name="Path 1326" d="M1457.835,268.235l-.508-.312a.089.089,0,0,0-.034-.026.091.091,0,0,1,.034.026l.508.312" transform="translate(-1288.596 -236.885)" fill="#fff"/>
    <path id="Path_1327" data-name="Path 1327" d="M1575.5,227.074a.116.116,0,0,0-.025.038A.116.116,0,0,1,1575.5,227.074Z" transform="translate(-1393.098 -200.788)" fill="#fff"/>
    <path id="Path_1328" data-name="Path 1328" d="M1462.156,270.87h0l-.18-.055.18.055h0" transform="translate(-1292.737 -239.465)" fill="#fff"/>
    <path id="Path_1329" data-name="Path 1329" d="M1568.6,239.062h0Z" transform="translate(-1387.017 -211.387)" fill="#fff"/>
    <path id="Path_1330" data-name="Path 1330" d="M1552.713,256.361l-.084.083v0l.084-.083" transform="translate(-1372.894 -226.685)" fill="#fff"/>
    <path id="Path_1331" data-name="Path 1331" d="M1386.125,191.211l-.445,1.841-.02.227.02-.227.445-1.841" transform="translate(-1225.255 -169.076)" fill="#fff"/>
    <path id="Path_1332" data-name="Path 1332" d="M1434.575,318.09l.355.218,0,0,0,0-.355-.218" transform="translate(-1268.508 -281.268)" fill="#fff"/>
    <path id="Path_1333" data-name="Path 1333" d="M1450.331,326.236l2.577.755.35.026-.35-.026-2.577-.755" transform="translate(-1282.44 -288.471)" fill="#fff"/>
    <path id="Path_1334" data-name="Path 1334" d="M1448.675,325.68h0l.192.064Z" transform="translate(-1280.976 -287.979)" fill="#fff"/>
    <path id="Path_1335" data-name="Path 1335" d="M1554.2,252.7l-.284.28-.105.1.105-.1.284-.28" transform="translate(-1373.94 -223.446)" fill="#fff"/>
    <path id="Path_1336" data-name="Path 1336" d="M1571.576,288.9h0l0,0,.1-.15-.1.15,0,0" transform="translate(-1389.65 -255.317)" fill="#fff"/>
    <path id="Path_1337" data-name="Path 1337" d="M1572.487,288.238l.045-.066-.011.016-.034.05" transform="translate(-1390.455 -254.813)" fill="#fff"/>
    <path id="Path_1338" data-name="Path 1338" d="M1384.691,232.017h0q.007.175.013.351l-.013-.351h0" transform="translate(-1224.399 -205.159)" fill="#fff"/>
    <path id="Path_1339" data-name="Path 1339" d="M1533.631,270.1s-.006,0-.008.007.006,0,.008-.007" transform="translate(-1356.09 -238.836)" fill="#fff"/>
    <path id="Path_1340" data-name="Path 1340" d="M1433.454,246.864l0,0,0,0-.465-.57-.075-.109.075.109.465.57" transform="translate(-1267.039 -217.687)" fill="#fff"/>
    <path id="Path_1341" data-name="Path 1341" d="M1389.7,191.108l0,.006,0-.006" transform="translate(-1228.824 -168.985)" fill="#fff"/>
    <path id="Path_1342" data-name="Path 1342" d="M1385.341,238.965l.04.355.012.119-.012-.119-.04-.355" transform="translate(-1224.973 -211.302)" fill="#fff"/>
    <path id="Path_1343" data-name="Path 1343" d="M1421.484,158.374h0a.114.114,0,0,0,.03-.086A.114.114,0,0,1,1421.484,158.374Z" transform="translate(-1256.932 -139.965)" fill="#fff"/>
    <path id="Path_1344" data-name="Path 1344" d="M1578.744,218.919h0l-.089.249.089-.249" transform="translate(-1395.909 -193.577)" fill="#fff"/>
    <path id="Path_1345" data-name="Path 1345" d="M1414.506,178.061l.092-.813q.009-.114.018-.229-.009.114-.018.229l-.092.813" transform="translate(-1250.762 -156.527)" fill="#fff"/>
    <path id="Path_1346" data-name="Path 1346" d="M1387.841,253.028h0l.083.237-.083-.237" transform="translate(-1227.184 -223.737)" fill="#fff"/>
    <path id="Path_1347" data-name="Path 1347" d="M1414.468,187.3h0l0-1.28,0,1.28h0" transform="translate(-1250.729 -164.489)" fill="#fff"/>
    <path id="Path_1348" data-name="Path 1348" d="M1406.36,158.8l0,0,0,0" transform="translate(-1243.56 -140.421)" fill="#fff"/>
    <path id="Path_1349" data-name="Path 1349" d="M1404.463,289.158l0,.006Z" transform="translate(-1241.882 -255.685)" fill="#fff"/>
    <path id="Path_1350" data-name="Path 1350" d="M1590.874,203.365h0l-.053-.226.053.226h0" transform="translate(-1406.667 -179.624)" fill="#fff"/>
    <path id="Path_1351" data-name="Path 1351" d="M1427.752,136.148h0l-.156.119.157-.119h0" transform="translate(-1262.336 -120.387)" fill="#fff"/>
    <path id="Path_1352" data-name="Path 1352" d="M1432.628,142.089h0" transform="translate(-1266.786 -125.641)" fill="#fff"/>
    <path id="Path_1353" data-name="Path 1353" d="M1384.9,236.051l.051.337-.051-.337" transform="translate(-1224.587 -208.726)" fill="#fff"/>
    <path id="Path_1354" data-name="Path 1354" d="M1404.464,289.16h0l0,0h0" transform="translate(-1241.882 -255.686)" fill="#fff"/>
    <path id="Path_1355" data-name="Path 1355" d="M1410.509,297.064l0,0Z" transform="translate(-1247.225 -262.672)" fill="#fff"/>
    <path id="Path_1356" data-name="Path 1356" d="M1557.7,252.133h0l-.006.006.006-.006" transform="translate(-1377.375 -222.946)" fill="#fff"/>
    <path id="Path_1357" data-name="Path 1357" d="M1422,141.121h0l-.1.082Z" transform="translate(-1257.301 -124.785)" fill="#fff"/>
    <path id="Path_1358" data-name="Path 1358" d="M1420.911,225.189l-.086-.25Z" transform="translate(-1256.35 -198.9)" fill="#fff"/>
    <path id="Path_1359" data-name="Path 1359" d="M1398.5,158.821l-1,1.537a.123.123,0,0,0-.035.089.123.123,0,0,1,.035-.089l1-1.537" transform="translate(-1235.693 -140.436)" fill="#fff"/>
    <path id="Path_1360" data-name="Path 1360" d="M1573.622,287.079h0" transform="translate(-1391.458 -253.846)" fill="#fff"/>
    <path id="Path_1361" data-name="Path 1361" d="M1420.493,224.092h0l-.007-.019Z" transform="translate(-1256.05 -198.134)" fill="#fff"/>
    <path id="Path_1362" data-name="Path 1362" d="M1575.667,205.092a3.1,3.1,0,0,0-.049.787,10.117,10.117,0,0,1-.052,3.821,11.329,11.329,0,0,1-1.431,3.776,10.891,10.891,0,0,0-.512,1.106h0c.142-.245.292-.487.444-.728.18-.287.361-.573.529-.865a7.746,7.746,0,0,0,.494-.991,12.191,12.191,0,0,0,.719-2.541q.022-.134.041-.268a11.107,11.107,0,0,0-.184-4.1Z" transform="translate(-1391.46 -181.35)" fill="#fff"/>
    <path id="Path_1363" data-name="Path 1363" d="M1481.68,319.737c-.383.152-.768.3-1.155.446a10.018,10.018,0,0,1-4.149.681c-.253-.016-.507,0-.761,0a.99.99,0,0,0,.261.1,10.247,10.247,0,0,0,4.653-.553c.2-.078.393-.164.587-.255.579-.273,1.141-.592,1.715-.879-.384.151-.767.306-1.151.458" transform="translate(-1304.797 -282.319)" fill="#fff"/>
    <path id="Path_1364" data-name="Path 1364" d="M1541.849,290.44a12.5,12.5,0,0,1-.977,1.1c-.643.528-1.351.976-2.02,1.474a1.606,1.606,0,0,0-.285.4,11.64,11.64,0,0,0,1.62-1.04q.252-.194.492-.4t.467-.431a10.276,10.276,0,0,0,1.242-1.472h0a3.1,3.1,0,0,0-.54.372" transform="translate(-1360.463 -256.49)" fill="#fff"/>
    <path id="Path_1365" data-name="Path 1365" d="M1463.533,271.289h0c.053.042.1.089.156.136a1.566,1.566,0,0,0,.486.358,7.734,7.734,0,0,0,1.481.38,5.6,5.6,0,0,0,2.976-.062,11.4,11.4,0,0,1-1.957-.018q-.322-.031-.64-.081c-.278-.044-.554-.1-.829-.166a10.862,10.862,0,0,1-1.671-.547" transform="translate(-1294.114 -239.884)" fill="#fff"/>
    <path id="Path_1366" data-name="Path 1366" d="M1581.313,189.274c.1-.241.217-.476.355-.78l.363.46-.4-1.857-.2.86-.555,2.385h0q.107-.267.214-.534c.072-.178.144-.356.219-.533" transform="translate(-1397.877 -165.439)" fill="#fff"/>
    <path id="Path_1367" data-name="Path 1367" d="M1439.84,253.892l-2.238-1.825a3.317,3.317,0,0,0,2.238,1.825" transform="translate(-1271.185 -222.888)" fill="#fff"/>
    <path id="Path_1368" data-name="Path 1368" d="M1430.043,125.44l.006.068c0,.035.006.076.01.119s.007.09.011.137l1.106-1.025-.155-.2-2.075,1.344h0l1.1-.441" transform="translate(-1263.531 -110.121)" fill="#fff"/>
    <path id="Path_1369" data-name="Path 1369" d="M1407.255,143.275q.109-.123.209-.252c.236-.3.446-.628.66-.949l-1.764,1.937h0a3.146,3.146,0,0,0,.669-.5c.079-.076.154-.155.226-.237" transform="translate(-1243.559 -125.627)" fill="#fff"/>
    <path id="Path_1370" data-name="Path 1370" d="M1417.985,304.458c-.547-.42-1.111-.817-1.669-1.222l2.112,1.719a3.453,3.453,0,0,0-.443-.5" transform="translate(-1252.362 -268.133)" fill="#fff"/>
    <path id="Path_1371" data-name="Path 1371" d="M1510.007,271.082c.127-.005.252-.014.376-.027a3.57,3.57,0,0,0,1.4-.425,3,3,0,0,0,.469-.329q.075-.064.148-.135l-2.778.922c.129,0,.257,0,.384,0" transform="translate(-1334.868 -238.891)" fill="#fff"/>
    <path id="Path_1372" data-name="Path 1372" d="M1414.6,198.9a6.54,6.54,0,0,0,.566,1.3l-.7-3.125h0a13.168,13.168,0,0,0,.131,1.824" transform="translate(-1250.728 -174.267)" fill="#fff"/>
    <path id="Path_1373" data-name="Path 1373" d="M1390.613,172.865l-.9,2.112h0a3.36,3.36,0,0,0,.9-2.112" transform="translate(-1228.842 -152.854)" fill="#fff"/>
    <path id="Path_1374" data-name="Path 1374" d="M1384.794,210.227c.017-.383.007-.766.01-1.15q-.056,1.328-.112,2.656h0c.035-.5.08-1,.1-1.506" transform="translate(-1224.399 -184.874)" fill="#fff"/>
    <path id="Path_1375" data-name="Path 1375" d="M1415.17,161.112l.7-2.082h0a2.535,2.535,0,0,0-.7,2.082" transform="translate(-1251.316 -140.621)" fill="#fff"/>
    <path id="Path_1376" data-name="Path 1376" d="M1421.746,143.965l1.26-1.875a2.748,2.748,0,0,0-1.26,1.875" transform="translate(-1257.164 -125.642)" fill="#fff"/>
    <path id="Path_1377" data-name="Path 1377" d="M1557.75,240.583c.075-.044.148-.09.22-.137l.106-.072a3.23,3.23,0,0,0,.3-.232,2.347,2.347,0,0,0,.176-.173q.042-.045.081-.093a1.773,1.773,0,0,0,.375-.806h0l-1.256,1.512h0" transform="translate(-1377.424 -211.396)" fill="#fff"/>
    <path id="Path_1378" data-name="Path 1378" d="M1437.676,320l1.273.658h0c-.232-.591-.8-.529-1.273-.658" transform="translate(-1271.25 -282.957)" fill="#fff"/>
    <path id="Path_1379" data-name="Path 1379" d="M1421.571,227.1c.074.444.059.933.58,1.151Z" transform="translate(-1257.009 -200.81)" fill="#fff"/>
    <path id="Path_1380" data-name="Path 1380" d="M1386.2,244.543a.747.747,0,0,0-.025-.131.729.729,0,0,0-.05-.126.925.925,0,0,0-.239-.29l.227,1.046a1.055,1.055,0,0,0,.087-.5" transform="translate(-1225.453 -215.75)" fill="#fff"/>
    <path id="Path_1381" data-name="Path 1381" d="M1395.607,274.061l.572,1.046c-.091-.4-.086-.859-.572-1.046" transform="translate(-1234.051 -242.336)" fill="#fff"/>
    <path id="Path_1382" data-name="Path 1382" d="M1410.534,297.081h0l.019.021.54.595c-.018-.358-.116-.643-.559-.616" transform="translate(-1247.25 -262.689)" fill="#fff"/>
    <path id="Path_1383" data-name="Path 1383" d="M1575.959,221.63a.435.435,0,0,0,.071-.073.339.339,0,0,0,.062-.131.381.381,0,0,0,.009-.1.671.671,0,0,0-.069-.25l-.343.695h0a.854.854,0,0,0,.269-.137" transform="translate(-1393.287 -195.481)" fill="#fff"/>
    <path id="Path_1384" data-name="Path 1384" d="M1429.04,241.191h0l-.339-.485c-.044.272-.012.49.338.485" transform="translate(-1263.301 -212.842)" fill="#fff"/>
    <path id="Path_1385" data-name="Path 1385" d="M1423.2,138.05l-.443.355c.246,0,.482,0,.443-.355" transform="translate(-1258.06 -122.069)" fill="#fff"/>
    <path id="Path_1386" data-name="Path 1386" d="M1420.553,224.281a.1.1,0,0,0,.026.037c.007-.011.023-.029.021-.031a.54.54,0,0,0-.053-.05h0a.1.1,0,0,0,.006.044" transform="translate(-1256.104 -198.279)" fill="#fff"/>
    <path id="Path_1387" data-name="Path 1387" d="M1579.327,218.24l-.043.032,0,.007.014.04h0a.1.1,0,0,0,.026-.079" transform="translate(-1396.465 -192.976)" fill="#fff"/>
    <path id="Path_1388" data-name="Path 1388" d="M1384.851,235.133a.529.529,0,0,0-.045-.08l.011.116c.012-.012.036-.029.033-.036" transform="translate(-1224.5 -207.843)" fill="#fff"/>
    <path id="Path_1389" data-name="Path 1389" d="M390.031,368.143h0c.033.058.074.116.115.174-.04-.058-.082-.116-.115-.174" transform="translate(-344.881 -325.527)" fill="#fff"/>
    <path id="Path_1390" data-name="Path 1390" d="M325.449,154.766c-3.194,1.513-6.541,1.407-9.893.629a6.675,6.675,0,0,1-4.742-3.635c-.116-.237-.23-.476-.36-.748l-2.219.855a9.109,9.109,0,0,0,6.464,5.384,21.429,21.429,0,0,0,8.722.3,9.608,9.608,0,0,0,5.3-2.511,5.436,5.436,0,0,0,1.046-6.761,5.579,5.579,0,0,0-3.853-2.443c-2.931-.549-5.887-.961-8.833-1.433a9.4,9.4,0,0,1-3.86-1.081,2.316,2.316,0,0,1-1.056-2.491,3.6,3.6,0,0,1,2.047-2.573,12.485,12.485,0,0,1,7.775-1.01,8.388,8.388,0,0,1,5.929,3.237l1.983-1.058a10.731,10.731,0,0,0-4.72-3.351,16.635,16.635,0,0,0-9.168-.514,8.4,8.4,0,0,0-4.751,2.43,4.76,4.76,0,0,0-.462,6.144,5.683,5.683,0,0,0,3.743,1.989c2.394.394,4.81.657,7.2,1.068a25.289,25.289,0,0,1,4.643,1.1,2.992,2.992,0,0,1,1.159,4.8,6.436,6.436,0,0,1-2.092,1.674" transform="translate(-272.553 -119.509)" fill="#fff"/>
    <path id="Path_1391" data-name="Path 1391" d="M818.185,204.154a7.83,7.83,0,0,1-7.219,1.8,6.307,6.307,0,0,1-4.283-2.8,5.42,5.42,0,0,1-.89-2.929h15.5c-.039-.356-.068-.642-.1-.928a7.628,7.628,0,0,0-2.472-4.894,9.521,9.521,0,0,0-7.776-2.326,8.6,8.6,0,0,0-5.017,2.14c-3.229,2.9-3.177,8.687.654,11.732a10.537,10.537,0,0,0,11.937.329,10.884,10.884,0,0,0,2.783-2.856l-1.545-1.086a20.486,20.486,0,0,1-1.572,1.813m-6.72-10.409c4.413-.235,7.022,2.381,7.274,4.744H805.913c-.016-2.235,2.817-4.6,5.552-4.744" transform="translate(-710.576 -169.782)" fill="#fff"/>
    <path id="Path_1392" data-name="Path 1392" d="M995.986,201.159a4.559,4.559,0,0,0-3.332-1.748c-1.817-.207-3.647-.295-5.47-.442-1.056-.085-2.116-.143-3.162-.3a1.722,1.722,0,0,1-1.475-1.3,1.644,1.644,0,0,1,.5-1.786,4.787,4.787,0,0,1,1.615-.954,12.207,12.207,0,0,1,6.117-.18c1.271.241,2.549.537,3.268,1.812a.284.284,0,0,0,.241.1c.685-.133,1.367-.282,2.079-.432a5.209,5.209,0,0,0-3.4-2.891,17.622,17.622,0,0,0-8.121-.4,5.7,5.7,0,0,0-3.577,1.83c-1.26,1.474-1.543,4.6,1.093,5.858a5.813,5.813,0,0,0,1.929.538c1.841.17,3.692.222,5.535.373a18.122,18.122,0,0,1,3.363.456,1.8,1.8,0,0,1,.815,3.133,4.463,4.463,0,0,1-2.488,1.25,14.5,14.5,0,0,1-5.461.1c-1.718-.268-3.306-.806-4.166-2.536l-2.207.492c.06.2.088.308.13.415a2.413,2.413,0,0,0,.13.258,5.965,5.965,0,0,0,4,2.89,18.34,18.34,0,0,0,7.628.33,6.545,6.545,0,0,0,4.308-2.247,3.9,3.9,0,0,0,.1-4.628" transform="translate(-866.279 -170.092)" fill="#fff"/>
    <path id="Path_1393" data-name="Path 1393" d="M654.2,196.081a.677.677,0,0,0-.746.467q-1.928,4.008-3.882,8c-.687,1.411-1.377,2.82-2.112,4.324-.714-1.448-1.389-2.8-2.054-4.165-1.335-2.734-2.662-5.471-4-8.2-.082-.166-.267-.386-.416-.4-.661-.043-1.326-.019-2.077-.019.122.272.191.446.275.612,2.231,4.418,4.5,8.815,6.665,13.266.482.992,1.023,1.4,2.084,1.24a.725.725,0,0,0,.665-.413q3.017-6.016,6.061-12.018c.44-.87.881-1.74,1.362-2.691-.675,0-1.25.03-1.82-.01" transform="translate(-564.949 -173.38)" fill="#fff"/>
    <path id="Path_1394" data-name="Path 1394" d="M596.879,161.808h2V140.281c-.511,0-.972.03-1.428-.008-.488-.041-.614.139-.613.617q.022,10.179.012,20.358c0,.186.018.372.029.561" transform="translate(-527.749 -124.029)" fill="#fff"/>
    <rect id="Rectangle_645" data-name="Rectangle 645" width="1.981" height="15.052" transform="translate(62.173 22.744)" fill="#fff"/>
    <path id="Path_1395" data-name="Path 1395" d="M106.149,366.3a2.469,2.469,0,0,0-2.224.578,2.235,2.235,0,0,0-3.021-.137c-.3-.707-.85-.26-1.323-.389v3.9h1.278c0-.693-.011-1.362,0-2.031.016-.743.363-1.081,1.06-1.068.6.012.812.267.826,1.058.012.67,0,1.34,0,2.018h1.328c0-.721,0-1.393,0-2.065,0-.734.293-1.032,1-1.033.648,0,.846.234.849,1.011,0,.7,0,1.409,0,2.107h1.3c0-.909.01-1.79,0-2.671a1.159,1.159,0,0,0-1.071-1.277" transform="translate(-88.053 -323.827)" fill="#fff"/>
    <path id="Path_1396" data-name="Path 1396" d="M260.439,367a11.2,11.2,0,0,0-2.46.006,1.2,1.2,0,0,0-1.089,1.15,4.669,4.669,0,0,0,1.362-.163,2.18,2.18,0,0,1,1.615-.109c.175.055.294.287.515.518-1,.049-1.835.037-2.65.146a1.042,1.042,0,0,0-1.052,1.086,1.2,1.2,0,0,0,1.017,1.278,3.187,3.187,0,0,0,2.457-.32c.44.582,1,.192,1.4.306,0-.878.011-1.7,0-2.526s-.318-1.275-1.108-1.372m-2.191,2.99c-.1-.074-.214-.282-.178-.372.061-.153.222-.352.363-.372.581-.083,1.171-.105,1.825-.155a1.434,1.434,0,0,1-2.01.9" transform="translate(-226.966 -324.457)" fill="#fff"/>
    <path id="Path_1397" data-name="Path 1397" d="M178.553,366.324a4.632,4.632,0,0,0-3.118-.008.992.992,0,0,0-.743,1.061,3.928,3.928,0,0,0,1.308-.158,2.026,2.026,0,0,1,1.556-.132c.195.056.337.294.5.448a3.1,3.1,0,0,1-.966.136c-.613.034-1.231.044-1.836.137a.943.943,0,0,0-.8.87,1.1,1.1,0,0,0,.482,1.211,2.045,2.045,0,0,0,1.028.309,20.113,20.113,0,0,0,2.03-.266c.364.411.893.093,1.324.184,0-.879,0-1.685,0-2.492a1.212,1.212,0,0,0-.764-1.3m-2.506,2.914c-.118-.069-.253-.311-.214-.4a.692.692,0,0,1,.413-.4c.564-.077,1.137-.082,1.771-.118a1.433,1.433,0,0,1-1.97.918" transform="translate(-154.241 -323.675)" fill="#fff"/>
    <path id="Path_1398" data-name="Path 1398" d="M50.536,366.324a4.8,4.8,0,0,0-2.955.031,1.164,1.164,0,0,0-.812,1.141,15.742,15.742,0,0,1,1.567-.335,6.759,6.759,0,0,1,1.476.01c.135.015.242.281.454.547-.64,0-1.083-.016-1.524,0a7.188,7.188,0,0,0-1.318.127,1.116,1.116,0,0,0-.623,1.813,1.908,1.908,0,0,0,1.2.568A13.3,13.3,0,0,0,50.146,370c.3.443.862.057,1.274.161,0-.894-.012-1.736,0-2.578a1.172,1.172,0,0,0-.888-1.259m-2.426,2.92c-.1-.084-.2-.3-.158-.39a1.056,1.056,0,0,1,.4-.359.682.682,0,0,1,.335-.07c.46-.007.92,0,1.422,0a1.418,1.418,0,0,1-2,.822" transform="translate(-41.141 -323.726)" fill="#fff"/>
    <path id="Path_1399" data-name="Path 1399" d="M3.319,369.072a1.282,1.282,0,0,1-1.732-.174,1.1,1.1,0,0,1-.033-1.384,1.368,1.368,0,0,1,1.687-.271c.56.39,1.083.154,1.737.1-.181-.231-.284-.389-.414-.522a3.143,3.143,0,0,0-3.5-.388A1.866,1.866,0,0,0,0,368.15a1.923,1.923,0,0,0,1.041,1.8,3.2,3.2,0,0,0,3.378-.27,6.071,6.071,0,0,0,.642-.756c-.692-.048-1.188-.354-1.741.148" transform="translate(0.001 -323.695)" fill="#fff"/>
    <path id="Path_1400" data-name="Path 1400" d="M315.865,367.248a2.774,2.774,0,0,0-2.467.6,2.655,2.655,0,0,0-3.166-.333l-.768-.32v3.851h.559c0-.748.011-1.459,0-2.169a.913.913,0,0,1,.7-1,3.869,3.869,0,0,1,1.3-.135,1.081,1.081,0,0,1,1.057,1.206c.011.655,0,1.311.007,1.966a.62.62,0,0,0,.061.172h.5c0-.779,0-1.492,0-2.2a.944.944,0,0,1,.7-1.007,3.463,3.463,0,0,1,1.3-.122c.762.1,1.069.53,1.073,1.319,0,.617,0,1.233.01,1.85a.742.742,0,0,0,.072.193l.5-.068c0-.76.026-1.473-.006-2.184a1.592,1.592,0,0,0-1.433-1.618" transform="translate(-273.64 -324.643)" fill="#fff"/>
    <path id="Path_1401" data-name="Path 1401" d="M609.513,371.477c-.365-.06-.4-.311-.4-.6,0-.52.005-1.039,0-1.559-.012-.7-.247-1.091-.93-1.186a8.077,8.077,0,0,0-2.163,0,1.046,1.046,0,0,0-.952,1.148,1.892,1.892,0,0,0,.6-.311c.168-.118.326-.339.5-.35a10.358,10.358,0,0,1,1.877.023c.224.027.413.333.619.512l-.14.176c-.82.076-1.646.117-2.46.237a1.2,1.2,0,0,0-1.15,1.274,1.224,1.224,0,0,0,1.351,1.141c.767-.033,1.528-.2,2.343-.317.211.072.524.2.848.275.073.018.186-.129.281-.2-.071-.091-.132-.248-.216-.262m-1.643-.244a5.671,5.671,0,0,1-1.788.16.8.8,0,0,1-.524-.6.93.93,0,0,1,.544-.679c.78-.165,1.585-.209,2.411-.3.176.77-.056,1.263-.643,1.425" transform="translate(-534.879 -325.453)" fill="#fff"/>
    <path id="Path_1402" data-name="Path 1402" d="M561.741,367.1a2.617,2.617,0,0,0-2.125.381l-.732-.487c0,1.821,0,3.436,0,5.051,0,.422.22.42.549.273v-1.734c1.658.69,2.922.539,3.625-.4a1.924,1.924,0,0,0-.14-2.442,2.741,2.741,0,0,0-1.177-.644m-.662,3.43c-1.018,0-1.637-.543-1.646-1.438a1.694,1.694,0,0,1,3.368-.071,1.518,1.518,0,0,1-1.722,1.509" transform="translate(-494.188 -324.514)" fill="#fff"/>
    <path id="Path_1403" data-name="Path 1403" d="M229.287,366.414c-.334.131-.657.289-.891.393-.154-.132-.273-.32-.4-.327a5.633,5.633,0,0,0-1.013.082c-.028,0-.055.136-.055.209,0,1.19,0,2.38,0,3.6h1.338c0-.451,0-.855,0-1.258,0-1.384.107-1.5,1.489-1.6.033,0,.064-.039.132-.083a4.434,4.434,0,0,1,0-.549c.061-.5-.153-.644-.6-.469" transform="translate(-200.655 -323.935)" fill="#fff"/>
    <path id="Path_1404" data-name="Path 1404" d="M500.829,369.374a2.106,2.106,0,0,1-2.449,1.007,1.5,1.5,0,0,1-.657-2.532,1.962,1.962,0,0,1,2.746.2c.268.312.466.33.739.068a2.573,2.573,0,0,0-3.275-1,1.9,1.9,0,0,0-1.285,1.868,1.884,1.884,0,0,0,1.282,1.81,2.708,2.708,0,0,0,3.32-1.1c.017-.027.006-.072.011-.152l-.433-.169" transform="translate(-439.156 -324.426)" fill="#fff"/>
    <path id="Path_1405" data-name="Path 1405" d="M389.064,368.143a2.071,2.071,0,0,1-.127.166A2.071,2.071,0,0,0,389.064,368.143Z" transform="translate(-343.913 -325.527)" fill="#fff"/>
    <path id="Path_1406" data-name="Path 1406" d="M391.324,368.538c-.009.52,0,1.041,0,1.561,0,.871-.274,1.233-1.132,1.374a4.8,4.8,0,0,1-1.26.016.87.87,0,0,1-.854-.916c-.016-.655,0-1.31-.038-1.964a.614.614,0,0,0-.134-.293c-.04-.058-.082-.116-.115-.174-.036.056-.082.111-.127.166a.542.542,0,0,0-.147.279c-.032.6-.015,1.194-.012,1.792.006,1.062.5,1.656,1.566,1.665a15.962,15.962,0,0,0,2.234-.281.809.809,0,0,0,.291.212c.062.018.26-.163.262-.255.018-1.172.012-2.344.012-3.508-.528-.059-.537-.059-.544.326" transform="translate(-342.639 -325.527)" fill="#fff"/>
    <path id="Path_1407" data-name="Path 1407" d="M439.911,368.959a1.473,1.473,0,0,0-1.34-1.548,2.938,2.938,0,0,0-2.3.347l-.527-.329a1.782,1.782,0,0,0-.186.527c-.017,1.078-.009,2.156-.009,3.259.408.127.56.021.55-.359-.016-.6,0-1.195,0-1.792a1,1,0,0,1,.763-1.033,3.769,3.769,0,0,1,1.188-.148c.936.041,1.311.461,1.316,1.385,0,.651,0,1.3,0,1.957.367.089.559.043.548-.359-.019-.635.014-1.272-.006-1.908" transform="translate(-385.128 -324.802)" fill="#fff"/>
    <rect id="Rectangle_646" data-name="Rectangle 646" width="1.973" height="2.869" transform="translate(62.172 17.161)" fill="#fff"/>
    <path id="Path_1408" data-name="Path 1408" d="M652.651,354.216c-.076.106-.217.212-.218.319-.014,1.6-.016,3.192.005,4.788,0,.13.2.257.3.385l.187-.144c0-1.671.005-3.342-.012-5.013,0-.112-.171-.223-.263-.335" transform="translate(-576.897 -313.212)" fill="#fff"/>
    <path id="Path_1409" data-name="Path 1409" d="M483.958,367.648c-.136.1-.388.19-.39.29-.027,1.2-.018,2.4-.018,3.6l.206.1c.115-.148.325-.294.328-.445.028-1.129.015-2.258.015-3.387l-.142-.155" transform="translate(-427.573 -325.089)" fill="#fff"/>
    <path id="Path_1410" data-name="Path 1410" d="M543.665,368.61c.018,1.095.011,2.19.017,3.285,0,.031.033.063.063.116h.475v-3.745c-.382-.115-.562-.054-.555.345" transform="translate(-480.73 -325.589)" fill="#fff"/>
    <path id="Path_1411" data-name="Path 1411" d="M57.55,355.433a1.106,1.106,0,0,0,1.318.422c-.257-1.011-1.019-.975-1.817-.968-.687.006-.747.6-1.091.924l.126.228,1.464-.605" transform="translate(-49.483 -313.803)" fill="#fff"/>
    <path id="Path_1412" data-name="Path 1412" d="M483.512,356.991c.748.134.484-.362.528-.732-.79-.1-.479.4-.528.732" transform="translate(-427.522 -315.008)" fill="#fff"/>
    <path id="Path_1413" data-name="Path 1413" d="M544.188,356.862v-.754l-.529.052c.029.38-.187.866.529.7" transform="translate(-480.716 -314.885)" fill="#fff"/>
  </g>
</svg>
