<?xml version="1.0" encoding="UTF-8"?><svg id="Layer_2" xmlns="http://www.w3.org/2000/svg" viewBox="0 0 387.15 62.9"><defs><style>.{fill:#897967;}</style></defs><g id="Layer_1-2"><rect class="" x="219.32" y=".43" width="1.15" height="62.46"/><path class="" d="m243.68,17.19l1.04-1.33c.89,1.04,2.38,1.99,4.33,1.99,2.47,0,3.25-1.33,3.25-2.41,0-3.57-8.19-1.58-8.19-6.51,0-2.28,2.03-3.85,4.77-3.85,2.09,0,3.73.73,4.89,1.95l-1.04,1.26c-1.04-1.16-2.49-1.66-4-1.66-1.64,0-2.84.89-2.84,2.2,0,3.11,8.19,1.33,8.19,6.49,0,1.99-1.37,4.06-5.1,4.06-2.38,0-4.17-.91-5.31-2.2Z"/><path class="" d="m269.43,19.14l-1.22-3.09h-6.88l-1.22,3.09h-1.97l5.58-13.83h2.13l5.55,13.83h-1.97Zm-4.66-12.06l-2.92,7.46h5.87l-2.94-7.46Z"/><path class="" d="m276.09,19.14V5.32h1.72v12.29h6.42v1.53h-8.15Z"/><path class="" d="m288.39,12.24c0-4.31,3.17-7.15,7.11-7.15,2.47,0,4.17,1.08,5.37,2.57l-1.37.87c-.87-1.12-2.34-1.91-4-1.91-3.03,0-5.33,2.3-5.33,5.62s2.3,5.62,5.33,5.62c1.66,0,3.03-.79,3.73-1.49v-2.8h-4.77v-1.53h6.47v4.97c-1.28,1.45-3.17,2.4-5.43,2.4-3.94,0-7.11-2.88-7.11-7.17Z"/><path class="" d="m316.65,19.14l-1.22-3.09h-6.88l-1.22,3.09h-1.97l5.58-13.83h2.13l5.55,13.83h-1.97Zm-4.66-12.06l-2.92,7.46h5.87l-2.94-7.46Z"/><path class="" d="m323.54,19.14V5.32h4.72c4.31,0,7.09,3.01,7.09,6.92s-2.78,6.9-7.09,6.9h-4.72Zm10.03-6.9c0-2.98-1.89-5.39-5.31-5.39h-3v10.76h3c3.36,0,5.31-2.41,5.31-5.37Z"/><path class="" d="m340.6,12.24c0-4.08,2.78-7.15,6.86-7.15s6.88,3.07,6.88,7.15-2.8,7.15-6.88,7.15-6.86-3.07-6.86-7.15Zm11.96,0c0-3.23-2.01-5.62-5.1-5.62s-5.08,2.38-5.08,5.62,1.97,5.62,5.08,5.62,5.1-2.41,5.1-5.62Z"/><path class="" d="m359.31,17.19l1.04-1.33c.89,1.04,2.38,1.99,4.33,1.99,2.46,0,3.25-1.33,3.25-2.41,0-3.57-8.19-1.58-8.19-6.51,0-2.28,2.03-3.85,4.77-3.85,2.09,0,3.73.73,4.89,1.95l-1.04,1.26c-1.04-1.16-2.49-1.66-4-1.66-1.64,0-2.84.89-2.84,2.2,0,3.11,8.19,1.33,8.19,6.49,0,1.99-1.37,4.06-5.1,4.06-2.38,0-4.17-.91-5.31-2.2Z"/><path class="" d="m244.51,42.18v-13.83h5.55c2.78,0,4.33,1.91,4.33,4.17s-1.57,4.17-4.33,4.17h-3.83v5.49h-1.72Zm8.1-9.66c0-1.55-1.12-2.63-2.76-2.63h-3.63v5.27h3.63c1.64,0,2.76-1.08,2.76-2.63Z"/><path class="" d="m268.07,42.18l-1.22-3.09h-6.88l-1.22,3.09h-1.97l5.58-13.83h2.13l5.55,13.83h-1.97Zm-4.66-12.06l-2.92,7.46h5.87l-2.94-7.46Z"/><path class="" d="m274.73,42.18v-13.83h1.72v12.29h6.43v1.53h-8.15Z"/><path class="" d="m298.15,42.18l-1.22-3.09h-6.88l-1.22,3.09h-1.97l5.58-13.83h2.13l5.55,13.83h-1.97Zm-4.66-12.06l-2.92,7.46h5.87l-2.94-7.46Z"/><path class="" d="m303.72,35.28c0-4.25,3.13-7.15,7.11-7.15,2.45,0,4.14,1.16,5.24,2.74l-1.43.81c-.79-1.18-2.24-2.01-3.81-2.01-3.03,0-5.33,2.3-5.33,5.62s2.3,5.62,5.33,5.62c1.57,0,3.02-.85,3.81-2.01l1.45.79c-1.16,1.6-2.82,2.76-5.26,2.76-3.98,0-7.11-2.9-7.11-7.15Z"/><path class="" d="m321.4,42.18v-13.83h9.06v1.53h-7.34v4.46h7.19v1.53h-7.19v4.77h7.34v1.53h-9.06Z"/><path class="" d="m329.14,60.32l-.85-2.06h-4.29l-.85,2.06h-.43l3.2-7.69h.44l3.2,7.69h-.43Zm-3-7.26l-2,4.85h4.01l-2-4.85Z"/><path class="" d="m333.51,60.32v-7.69h.37v7.34h3.86v.35h-4.23Z"/><path class="" d="m341.32,56.48c0-2.36,1.71-3.97,3.84-3.97,1.16,0,2.06.41,2.81,1.19l-.24.25c-.6-.68-1.54-1.09-2.57-1.09-1.92,0-3.43,1.46-3.43,3.63s1.51,3.64,3.43,3.64c1.13,0,1.99-.56,2.44-1.04v-2.11h-3.17v-.34h3.54v2.6c-.66.74-1.66,1.23-2.81,1.23-2.13,0-3.84-1.62-3.84-3.99Z"/><path class="" d="m358.26,60.32l-.85-2.06h-4.29l-.85,2.06h-.43l3.2-7.69h.44l3.2,7.69h-.43Zm-3-7.26l-2,4.85h4.01l-2.01-4.85Z"/><path class="" d="m367.37,60.32l-2.34-3.32h-1.84v3.32h-.37v-7.69h2.65c1.25,0,2.27.77,2.27,2.18s-1.03,2.19-2.27,2.19l2.37,3.32h-.47Zm-.03-5.51c0-1.06-.74-1.83-1.87-1.83h-2.28v3.68h2.28c1.13,0,1.87-.78,1.87-1.84Z"/><path class="" d="m374.68,60.32l-3.2-7.69h.43l3,7.26,3-7.26h.43l-3.21,7.69h-.44Z"/><path class="" d="m382.44,60.32v-7.69h4.7v.35h-4.33v3.21h4.25v.34h-4.25v3.43h4.33v.35h-4.7Z"/><polygon class="" points="246.31 58.02 244.72 59.14 245.29 57.28 243.73 56.1 245.68 56.08 246.31 54.23 246.94 56.08 248.89 56.1 247.33 57.28 247.91 59.14 246.31 58.02"/><polygon class="" points="258.97 58.02 257.38 59.14 257.95 57.28 256.39 56.1 258.34 56.08 258.97 54.23 259.6 56.08 261.55 56.1 259.99 57.28 260.56 59.14 258.97 58.02"/><polygon class="" points="271.62 58.02 270.03 59.14 270.6 57.28 269.04 56.1 270.99 56.08 271.62 54.23 272.25 56.08 274.2 56.1 272.65 57.28 273.22 59.14 271.62 58.02"/><polygon class="" points="284.28 58.02 282.68 59.14 283.26 57.28 281.7 56.1 283.65 56.08 284.28 54.23 284.91 56.08 286.86 56.1 285.3 57.28 285.87 59.14 284.28 58.02"/><polygon class="" points="296.93 58.02 295.34 59.14 295.91 57.28 294.35 56.1 296.3 56.08 296.93 54.23 297.57 56.08 299.51 56.1 297.96 57.28 298.53 59.14 296.93 58.02"/><path class="" d="m83.49,60.28v-3.52h-4.49v3.52h-.95v-7.67h.95v3.3h4.49v-3.3h.95v7.67h-.95Z"/><path class="" d="m86.94,56.45c0-2.27,1.53-3.97,3.81-3.97s3.81,1.7,3.81,3.97-1.54,3.97-3.81,3.97-3.81-1.7-3.81-3.97Zm6.63,0c0-1.79-1.1-3.12-2.82-3.12s-2.82,1.32-2.82,3.12,1.09,3.12,2.82,3.12,2.82-1.33,2.82-3.12Z"/><path class="" d="m98.49,60.28v-6.82h-2.43v-.85h5.82v.85h-2.44v6.82h-.95Z"/><path class="" d="m104.05,60.28v-7.67h5.03v.85h-4.07v2.47h3.99v.85h-3.99v2.65h4.07v.85h-5.03Z"/><path class="" d="m111.59,60.28v-7.67h.95v6.82h3.57v.85h-4.52Z"/><path class="" d="m118.06,59.2l.56-.72c.51.56,1.33,1.09,2.42,1.09,1.37,0,1.81-.74,1.81-1.32,0-1.98-4.54-.89-4.54-3.62,0-1.26,1.13-2.13,2.63-2.13,1.17,0,2.08.39,2.73,1.07l-.58.7c-.57-.63-1.38-.92-2.22-.92-.92,0-1.58.49-1.58,1.22,0,1.73,4.54.74,4.54,3.6,0,1.12-.76,2.25-2.83,2.25-1.33,0-2.31-.51-2.94-1.22Z"/><path class="" d="m135.16,60.28c-.23-.2-.53-.48-.84-.81-.56.56-1.28.94-2.21.94-1.32,0-2.39-.71-2.39-2.14,0-1.2.81-1.81,1.69-2.28-.35-.59-.59-1.18-.59-1.73,0-1.02.85-1.78,1.93-1.78,1,0,1.74.54,1.74,1.51,0,1.15-.98,1.66-1.96,2.16.31.43.63.81.89,1.09.31.37.61.7.91,1.02.43-.63.69-1.32.83-1.75l.75.32c-.26.61-.59,1.33-1.05,1.98.45.47.93.93,1.5,1.45h-1.2Zm-1.36-1.33c-.44-.46-.84-.9-1.06-1.16-.32-.37-.66-.78-.97-1.22-.63.39-1.13.86-1.13,1.66,0,.96.74,1.48,1.54,1.48.63,0,1.17-.32,1.61-.76Zm-1.62-3.34c.82-.4,1.52-.82,1.52-1.58,0-.56-.39-.86-.91-.86-.59,0-1.07.46-1.07,1.12,0,.4.2.87.46,1.32Z"/><path class="" d="m146.96,60.28l-1.96-3.05h-1.53v3.05h-.95v-7.67h3.08c1.4,0,2.4.9,2.4,2.31s-.94,2.14-1.99,2.23l2.07,3.13h-1.13Zm.06-5.36c0-.86-.62-1.46-1.53-1.46h-2.01v2.93h2.01c.91,0,1.53-.61,1.53-1.47Z"/><path class="" d="m150.5,60.28v-7.67h5.03v.85h-4.07v2.47h3.99v.85h-3.99v2.65h4.07v.85h-5.03Z"/><path class="" d="m157.57,59.2l.56-.72c.51.56,1.33,1.09,2.42,1.09,1.37,0,1.81-.74,1.81-1.32,0-1.98-4.54-.89-4.54-3.62,0-1.26,1.13-2.13,2.63-2.13,1.17,0,2.08.39,2.73,1.07l-.57.7c-.58-.63-1.38-.92-2.22-.92-.92,0-1.58.49-1.58,1.22,0,1.73,4.54.74,4.54,3.6,0,1.12-.76,2.25-2.83,2.25-1.33,0-2.31-.51-2.94-1.22Z"/><path class="" d="m165.36,56.45c0-2.27,1.53-3.97,3.81-3.97s3.81,1.7,3.81,3.97-1.54,3.97-3.81,3.97-3.81-1.7-3.81-3.97Zm6.63,0c0-1.79-1.1-3.12-2.82-3.12s-2.82,1.32-2.82,3.12,1.09,3.12,2.82,3.12,2.82-1.33,2.82-3.12Z"/><path class="" d="m179.92,60.28l-1.96-3.05h-1.53v3.05h-.96v-7.67h3.08c1.4,0,2.4.9,2.4,2.31s-.94,2.14-1.99,2.23l2.07,3.13h-1.13Zm.06-5.36c0-.86-.62-1.46-1.53-1.46h-2.01v2.93h2.01c.91,0,1.53-.61,1.53-1.47Z"/><path class="" d="m185.26,60.28v-6.82h-2.43v-.85h5.82v.85h-2.44v6.82h-.95Z"/><path class="" d="m190.34,59.2l.56-.72c.51.56,1.33,1.09,2.42,1.09,1.37,0,1.81-.74,1.81-1.32,0-1.98-4.54-.89-4.54-3.62,0-1.26,1.13-2.13,2.63-2.13,1.17,0,2.08.39,2.73,1.07l-.57.7c-.58-.63-1.38-.92-2.22-.92-.92,0-1.58.49-1.58,1.22,0,1.73,4.54.74,4.54,3.6,0,1.12-.76,2.25-2.83,2.25-1.33,0-2.31-.51-2.94-1.22Z"/><polygon class="" points="109.07 40.55 107.35 40.55 107.29 40.48 80.31 6.59 80.31 40.55 78.12 40.55 78.12 3.03 80.05 3.03 80.11 3.1 106.88 36.73 106.88 3.03 109.07 3.03 109.07 40.55"/><path class="" d="m180.92,41.14c-2.24,0-4.32-.37-6.2-1.08-1.87-.71-3.5-1.78-4.84-3.18-1.34-1.39-2.4-3.16-3.15-5.24-.75-2.08-1.12-4.54-1.12-7.31V3.03h2.19v21.2c0,2.44.32,4.62.95,6.46.62,1.84,1.52,3.41,2.66,4.65,1.14,1.24,2.54,2.19,4.15,2.81,1.61.62,3.44.94,5.42.94s3.8-.31,5.4-.92c1.59-.6,2.97-1.53,4.09-2.76,1.13-1.23,2.01-2.78,2.61-4.6.61-1.83.92-4.01.92-6.49V3.03h2.19v21.15c0,2.77-.37,5.24-1.1,7.36-.73,2.12-1.78,3.91-3.12,5.32-1.34,1.41-2.97,2.49-4.85,3.2-1.87.71-3.96,1.08-6.2,1.08"/><path class="" d="m156.4,40.55h-2.39l-3.86-8.29c-.14-.17-1.66-2.02-5.05-3.56-3.24-1.47-7.16-2.22-11.65-2.22-1.89,0-3.86.13-5.88.39l-6.42,13.68h-2.28L136.66,2.76h1.94l.05.11,17.74,37.68Zm-22.96-16.17c4.87,0,9.13.83,12.66,2.47.7.32,1.38.68,2.01,1.06l-10.53-22.38-8.97,19.1c1.65-.17,3.27-.26,4.82-.26"/><path class="" d="m62.4,62.4H0V0h62.4v62.4ZM2.59,43.59c10.41-4.38,22.08-4.86,34.8-1.41,9.5,2.57,17.45,6.8,22.42,9.87V2.59H2.59v41Zm0,13.12v3.1h57.23v-2.79h0c-9.82-2.55-18.94-4.21-27.15-4.92-7.5-.65-14.02-.47-19.36.53-4.36.82-7.95,2.18-10.72,4.08Zm0-3.07c6.75-3.89,16.89-5.28,30.3-4.12,7.57.65,15.9,2.1,24.82,4.29-10.38-6.24-33.39-17.14-55.12-7.39v7.22Z"/></g></svg>