<svg id="Layer_1" data-name="Layer 1" xmlns="http://www.w3.org/2000/svg" viewBox="0 0 508.42 127.35"><rect x="198.64" y="65.5" width="108.4" height="7.1"/><path d="M0,.23H14.72c4.1,0,7.27,1.15,9.39,3.27a10.08,10.08,0,0,1,2.76,7.36V11A10,10,0,0,1,20,21l7.86,11.5H19.55l-6.9-10.3H7.09v10.3H0ZM14.26,15.87c3.45,0,5.43-1.84,5.43-4.55v-.1c0-3-2.11-4.6-5.57-4.6h-7v9.25Z" transform="translate(0 0.19)"/><path d="M38.78.23H63.09v6.3H45.82v6.54H61v6.3H45.82v6.76H63.3v6.3H38.78Z" transform="translate(0 0.19)"/><path d="M86.16,0h6.53l13.8,32.43h-7.4l-3-7.22H82.53l-3,7.22H72.36Zm7.45,19L89.33,8.56,85.09,19Z" transform="translate(0 0.19)"/><path d="M117,.23h7.11V26h16v6.44H117Z" transform="translate(0 0.19)"/><path d="M170.29.23h15c3.68,0,6.58,1,8.42,2.85a7.37,7.37,0,0,1,2.21,5.48v.09a7.5,7.5,0,0,1-4.23,7c3.73,1.42,6,3.58,6,7.91v.09c0,5.89-4.78,8.83-12,8.83h-15.4Zm13.44,13c3.12,0,5.1-1,5.1-3.41V9.73c0-2.11-1.65-3.31-4.64-3.31h-7v6.81Zm1.88,13c3.13,0,5-1.1,5-3.49v-.1c0-2.16-1.61-3.49-5.25-3.49h-8.17v7.08Z" transform="translate(0 0.19)"/><path d="M209,.23h24.29v6.3H216.09v6.54h15.18v6.3H216.09v6.76h17.48v6.3H209Z" transform="translate(0 0.19)"/><path d="M245.36.23h7.09V26H268.5v6.44H245.36Z" transform="translate(0 0.19)"/><path d="M279.36.23h7.08V26H302.5v6.44H279.36Z" transform="translate(0 0.19)"/><path d="M324.39,0h6.53l13.81,32.43h-7.41l-3-7.22H320.76l-2.95,7.22h-7.22Zm7.45,19L327.57,8.56,323.29,19Z" transform="translate(0 0.19)"/><path d="M347.85.23h7.82l8.42,22.68L372.51.23h7.64l-13,32.43h-6.26Z" transform="translate(0 0.19)"/><path d="M391,.23h7.14v32.2H391Z" transform="translate(0 0.19)"/><path d="M409.4,27.73l4.19-5c2.89,2.39,5.93,3.91,9.61,3.91,2.9,0,4.65-1.15,4.65-3v-.09c0-1.8-1.11-2.72-6.49-4.1-6.49-1.65-10.67-3.45-10.67-9.84V9.52c0-5.85,4.69-9.71,11.27-9.71A18.67,18.67,0,0,1,434,3.9l-3.68,5.34c-2.85-2-5.66-3.17-8.37-3.17s-4.14,1.24-4.14,2.8V9c0,2.12,1.38,2.81,6.94,4.24,6.54,1.7,10.22,4,10.22,9.66V23c0,6.39-4.88,10-11.83,10A20.5,20.5,0,0,1,409.4,27.73Z" transform="translate(0 0.19)"/><path d="M453.38,6.73h-9.8V.23h26.68v6.5h-9.8v25.7h-7.08Z" transform="translate(0 0.19)"/><path d="M488.09,0h6.53l13.8,32.43H501l-2.92-7.22H484.47l-2.94,7.22h-7.22Zm7.45,19L491.26,8.56,487,19Z" transform="translate(0 0.19)"/><path d="M209.76,117.86h2.43l3.9,9.17h-2.7l-.67-1.63h-3.53l-.65,1.63h-2.65Zm2.21,5.58-1-2.59-1,2.59Z" transform="translate(0 0.19)"/><path d="M218.91,117.93h2.53v6.89h4.4V127h-6.93Z" transform="translate(0 0.19)"/><path d="M228.89,117.93h4.66a3.32,3.32,0,0,1,2.54.8,2,2,0,0,1,.58,1.46h0a2.12,2.12,0,0,1-1.4,2,2.21,2.21,0,0,1,1.8,2.22h0c0,1.56-1.27,2.51-3.44,2.51h-4.74Zm4,3.62c.77,0,1.19-.26,1.19-.79h0c0-.49-.38-.78-1.14-.78H231.3v1.6Zm.36,3.45c.77,0,1.21-.3,1.21-.83h0c0-.49-.39-.82-1.23-.82H231.3V125Z" transform="translate(0 0.19)"/><path d="M240,123v-5.11h2.56v5c0,1.32.66,1.94,1.67,1.94s1.68-.6,1.68-1.87v-5.12h2.56v5c0,2.94-1.67,4.23-4.26,4.23S240,125.88,240,123Z" transform="translate(0 0.19)"/><path d="M252,117.93h7.28v2.21h-4.76v1.59h4.31v2.1h-4.31v3.25H252Z" transform="translate(0 0.19)"/><path d="M262.35,117.93h7.32v2.14h-4.83v1.38h4.37v2h-4.37v1.44h4.89V127h-7.38Z" transform="translate(0 0.19)"/><path d="M273,117.93h2.54V127H273Z" transform="translate(0 0.19)"/><path d="M279.2,117.93h4.3a4,4,0,0,1,3,1,2.79,2.79,0,0,1,.81,2.12h0a2.87,2.87,0,0,1-1.87,2.79l2.17,3.18H284.7l-1.84-2.76h-1.1V127h-2.52Zm4.18,4.36c.86,0,1.35-.41,1.35-1.07h0c0-.72-.52-1.08-1.36-1.08h-1.65v2.18Z" transform="translate(0 0.19)"/><path d="M293.48,117.86h2.43l3.88,9.17h-2.7l-.66-1.63h-3.51l-.65,1.63h-2.65Zm2.21,5.58-1-2.59-1,2.59Z" transform="translate(0 0.19)"/><path d="M191.41,92.22h1.43v5.61h7.25V92.22h1.42v12.61h-1.42V99.16h-7.27v5.67h-1.43Z" transform="translate(0 0.19)"/><path d="M204.9,98.56h0a6.43,6.43,0,1,1,12.85-.51,4.34,4.34,0,0,1,0,.51h0a6.39,6.39,0,0,1-6.25,6.51h-.2a6.31,6.31,0,0,1-6.4-6.24Zm11.37,0h0a5,5,0,0,0-4.79-5.21h-.21a5,5,0,0,0-4.93,5.07v.1h0a5,5,0,0,0,4.8,5.2h.2a5,5,0,0,0,4.93-5.07Z" transform="translate(0 0.19)"/><path d="M223.58,93.54h-4.23V92.22h9.9v1.32H225v11.29h-1.44Z" transform="translate(0 0.19)"/><path d="M232.27,92.22h9.11v1.3H233.7v4.31h6.87v1.29H233.7v4.41h7.77v1.3h-9.2Z" transform="translate(0 0.19)"/><path d="M244.69,92.22h1.4v11.29h7.09v1.32h-8.49Z" transform="translate(0 0.19)"/><path d="M269.09,103.05a5.48,5.48,0,0,1-4.13,2c-2.27,0-4-1.42-4-3.53h0c0-1.67,1.12-2.88,3-3.63a4.13,4.13,0,0,1-1.26-2.78h0a3.08,3.08,0,0,1,3.15-3H266a2.93,2.93,0,0,1,3.07,2.77V95h0c0,1.6-1.14,2.63-3,3.28l2.89,2.93a16.9,16.9,0,0,0,1.51-2.81l1.17.54a18.09,18.09,0,0,1-1.82,3.17l2.2,2.25-1.08.83Zm-.87-.89-3.39-3.43c-1.67.61-2.41,1.64-2.41,2.7h0a2.43,2.43,0,0,0,2.48,2.38h.15a4.31,4.31,0,0,0,3.15-1.64Zm-.38-7.2h0a1.71,1.71,0,0,0-1.67-1.75h-.11a1.81,1.81,0,0,0-1.91,1.71V95h0c0,.74.31,1.3,1.26,2.33,1.58-.54,2.41-1.32,2.41-2.4Z" transform="translate(0 0.19)"/><path d="M279.77,103l.89-1a6,6,0,0,0,4.32,1.78c1.69,0,2.81-.9,2.81-2.14h0c0-1.17-.63-1.84-3.28-2.39-2.9-.63-4.23-1.57-4.23-3.64h0c0-2,1.74-3.44,4.14-3.44a6.63,6.63,0,0,1,4.43,1.55l-.83,1.1a5.54,5.54,0,0,0-3.64-1.37c-1.64,0-2.68.9-2.68,2h0c0,1.19.65,1.86,3.42,2.45s4.11,1.64,4.11,3.57h0c0,2.16-1.81,3.57-4.31,3.57A7.41,7.41,0,0,1,279.77,103Z" transform="translate(0 0.19)"/><path d="M292.48,92.22h4.72c2.84,0,4.72,1.52,4.72,4h0c0,2.72-2.27,4.12-5,4.12h-3.06v4.45h-1.42ZM297,99.08c2.09,0,3.46-1.11,3.46-2.77h0c0-1.8-1.36-2.74-3.39-2.74H293.9v5.54Z" transform="translate(0 0.19)"/><path d="M308.27,92.13h1.33l5.74,12.7h-1.53l-1.47-3.33h-6.86l-1.5,3.33h-1.46Zm3.51,8.09-2.86-6.43-2.83,6.43Z" transform="translate(0 0.19)"/></svg>